<?xml version="1.0" encoding="utf-8" standalone="no"?>
<!DOCTYPE svg PUBLIC "-//W3C//DTD SVG 1.1//EN"
  "http://www.w3.org/Graphics/SVG/1.1/DTD/svg11.dtd">
<!-- Created with matplotlib (https://matplotlib.org/) -->
<svg height="351.536562pt" version="1.1" viewBox="0 0 856.644063 351.536562" width="856.644063pt" xmlns="http://www.w3.org/2000/svg" xmlns:xlink="http://www.w3.org/1999/xlink">
 <defs>
  <style type="text/css">
*{stroke-linecap:butt;stroke-linejoin:round;}
  </style>
 </defs>
 <g id="figure_1">
  <g id="patch_1">
   <path d="M -0 351.536562 
L 856.644063 351.536562 
L 856.644063 0 
L -0 0 
z
" style="fill:#eaeaea;"/>
  </g>
  <g id="axes_1">
   <g id="patch_2">
    <path d="M 65.745313 173.466384 
L 237.057813 173.466384 
L 237.057813 22.837812 
L 65.745313 22.837812 
z
" style="fill:#ffffff;"/>
   </g>
   <g id="patch_3">
    <path clip-path="url(#pd96b0aafe7)" d="M 228.492188 173.466384 
L 228.492188 22.837812 
L 237.057813 22.837812 
L 237.057813 173.466384 
z
" style="fill:url(#h1fe752d45d);opacity:0.2;stroke:#808080;stroke-linejoin:miter;"/>
   </g>
   <g id="line2d_1">
    <path clip-path="url(#pd96b0aafe7)" d="M 65.745313 167.190193 
L 237.057813 167.190193 
" style="fill:none;stroke:#808080;stroke-linecap:square;"/>
   </g>
   <g id="matplotlib.axis_1"/>
   <g id="matplotlib.axis_2">
    <g id="ytick_1">
     <g id="line2d_2">
      <defs>
       <path d="M 0 0 
L -3.5 0 
" id="m0d98fae3c7" style="stroke:#000000;stroke-width:0.8;"/>
      </defs>
      <g>
       <use style="stroke:#000000;stroke-width:0.8;" x="65.745313" xlink:href="#m0d98fae3c7" y="167.190193"/>
      </g>
     </g>
     <g id="text_1">
      <!-- 0 -->
      <defs>
       <path d="M 31.78125 66.40625 
Q 24.171875 66.40625 20.328125 58.90625 
Q 16.5 51.421875 16.5 36.375 
Q 16.5 21.390625 20.328125 13.890625 
Q 24.171875 6.390625 31.78125 6.390625 
Q 39.453125 6.390625 43.28125 13.890625 
Q 47.125 21.390625 47.125 36.375 
Q 47.125 51.421875 43.28125 58.90625 
Q 39.453125 66.40625 31.78125 66.40625 
z
M 31.78125 74.21875 
Q 44.046875 74.21875 50.515625 64.515625 
Q 56.984375 54.828125 56.984375 36.375 
Q 56.984375 17.96875 50.515625 8.265625 
Q 44.046875 -1.421875 31.78125 -1.421875 
Q 19.53125 -1.421875 13.0625 8.265625 
Q 6.59375 17.96875 6.59375 36.375 
Q 6.59375 54.828125 13.0625 64.515625 
Q 19.53125 74.21875 31.78125 74.21875 
z
" id="DejaVuSans-48"/>
      </defs>
      <g transform="translate(49.837813 172.5091)scale(0.14 -0.14)">
       <use xlink:href="#DejaVuSans-48"/>
      </g>
     </g>
    </g>
    <g id="ytick_2">
     <g id="line2d_3">
      <g>
       <use style="stroke:#000000;stroke-width:0.8;" x="65.745313" xlink:href="#m0d98fae3c7" y="135.809241"/>
      </g>
     </g>
     <g id="text_2">
      <!-- 25 -->
      <defs>
       <path d="M 19.1875 8.296875 
L 53.609375 8.296875 
L 53.609375 0 
L 7.328125 0 
L 7.328125 8.296875 
Q 12.9375 14.109375 22.625 23.890625 
Q 32.328125 33.6875 34.8125 36.53125 
Q 39.546875 41.84375 41.421875 45.53125 
Q 43.3125 49.21875 43.3125 52.78125 
Q 43.3125 58.59375 39.234375 62.25 
Q 35.15625 65.921875 28.609375 65.921875 
Q 23.96875 65.921875 18.8125 64.3125 
Q 13.671875 62.703125 7.8125 59.421875 
L 7.8125 69.390625 
Q 13.765625 71.78125 18.9375 73 
Q 24.125 74.21875 28.421875 74.21875 
Q 39.75 74.21875 46.484375 68.546875 
Q 53.21875 62.890625 53.21875 53.421875 
Q 53.21875 48.921875 51.53125 44.890625 
Q 49.859375 40.875 45.40625 35.40625 
Q 44.1875 33.984375 37.640625 27.21875 
Q 31.109375 20.453125 19.1875 8.296875 
z
" id="DejaVuSans-50"/>
       <path d="M 10.796875 72.90625 
L 49.515625 72.90625 
L 49.515625 64.59375 
L 19.828125 64.59375 
L 19.828125 46.734375 
Q 21.96875 47.46875 24.109375 47.828125 
Q 26.265625 48.1875 28.421875 48.1875 
Q 40.625 48.1875 47.75 41.5 
Q 54.890625 34.8125 54.890625 23.390625 
Q 54.890625 11.625 47.5625 5.09375 
Q 40.234375 -1.421875 26.90625 -1.421875 
Q 22.3125 -1.421875 17.546875 -0.640625 
Q 12.796875 0.140625 7.71875 1.703125 
L 7.71875 11.625 
Q 12.109375 9.234375 16.796875 8.0625 
Q 21.484375 6.890625 26.703125 6.890625 
Q 35.15625 6.890625 40.078125 11.328125 
Q 45.015625 15.765625 45.015625 23.390625 
Q 45.015625 31 40.078125 35.4375 
Q 35.15625 39.890625 26.703125 39.890625 
Q 22.75 39.890625 18.8125 39.015625 
Q 14.890625 38.140625 10.796875 36.28125 
z
" id="DejaVuSans-53"/>
      </defs>
      <g transform="translate(40.930313 141.128147)scale(0.14 -0.14)">
       <use xlink:href="#DejaVuSans-50"/>
       <use x="63.623047" xlink:href="#DejaVuSans-53"/>
      </g>
     </g>
    </g>
    <g id="ytick_3">
     <g id="line2d_4">
      <g>
       <use style="stroke:#000000;stroke-width:0.8;" x="65.745313" xlink:href="#m0d98fae3c7" y="104.428289"/>
      </g>
     </g>
     <g id="text_3">
      <!-- 50 -->
      <g transform="translate(40.930313 109.747195)scale(0.14 -0.14)">
       <use xlink:href="#DejaVuSans-53"/>
       <use x="63.623047" xlink:href="#DejaVuSans-48"/>
      </g>
     </g>
    </g>
    <g id="ytick_4">
     <g id="line2d_5">
      <g>
       <use style="stroke:#000000;stroke-width:0.8;" x="65.745313" xlink:href="#m0d98fae3c7" y="73.047336"/>
      </g>
     </g>
     <g id="text_4">
      <!-- 75 -->
      <defs>
       <path d="M 8.203125 72.90625 
L 55.078125 72.90625 
L 55.078125 68.703125 
L 28.609375 0 
L 18.3125 0 
L 43.21875 64.59375 
L 8.203125 64.59375 
z
" id="DejaVuSans-55"/>
      </defs>
      <g transform="translate(40.930313 78.366243)scale(0.14 -0.14)">
       <use xlink:href="#DejaVuSans-55"/>
       <use x="63.623047" xlink:href="#DejaVuSans-53"/>
      </g>
     </g>
    </g>
    <g id="ytick_5">
     <g id="line2d_6">
      <g>
       <use style="stroke:#000000;stroke-width:0.8;" x="65.745313" xlink:href="#m0d98fae3c7" y="41.666384"/>
      </g>
     </g>
     <g id="text_5">
      <!-- 100 -->
      <defs>
       <path d="M 12.40625 8.296875 
L 28.515625 8.296875 
L 28.515625 63.921875 
L 10.984375 60.40625 
L 10.984375 69.390625 
L 28.421875 72.90625 
L 38.28125 72.90625 
L 38.28125 8.296875 
L 54.390625 8.296875 
L 54.390625 0 
L 12.40625 0 
z
" id="DejaVuSans-49"/>
      </defs>
      <g transform="translate(32.022813 46.98529)scale(0.14 -0.14)">
       <use xlink:href="#DejaVuSans-49"/>
       <use x="63.623047" xlink:href="#DejaVuSans-48"/>
       <use x="127.246094" xlink:href="#DejaVuSans-48"/>
      </g>
     </g>
    </g>
    <g id="text_6">
     <!-- Rates [Hz] -->
     <defs>
      <path d="M 44.390625 34.1875 
Q 47.5625 33.109375 50.5625 29.59375 
Q 53.5625 26.078125 56.59375 19.921875 
L 66.609375 0 
L 56 0 
L 46.6875 18.703125 
Q 43.0625 26.03125 39.671875 28.421875 
Q 36.28125 30.8125 30.421875 30.8125 
L 19.671875 30.8125 
L 19.671875 0 
L 9.8125 0 
L 9.8125 72.90625 
L 32.078125 72.90625 
Q 44.578125 72.90625 50.734375 67.671875 
Q 56.890625 62.453125 56.890625 51.90625 
Q 56.890625 45.015625 53.6875 40.46875 
Q 50.484375 35.9375 44.390625 34.1875 
z
M 19.671875 64.796875 
L 19.671875 38.921875 
L 32.078125 38.921875 
Q 39.203125 38.921875 42.84375 42.21875 
Q 46.484375 45.515625 46.484375 51.90625 
Q 46.484375 58.296875 42.84375 61.546875 
Q 39.203125 64.796875 32.078125 64.796875 
z
" id="DejaVuSans-82"/>
      <path d="M 34.28125 27.484375 
Q 23.390625 27.484375 19.1875 25 
Q 14.984375 22.515625 14.984375 16.5 
Q 14.984375 11.71875 18.140625 8.90625 
Q 21.296875 6.109375 26.703125 6.109375 
Q 34.1875 6.109375 38.703125 11.40625 
Q 43.21875 16.703125 43.21875 25.484375 
L 43.21875 27.484375 
z
M 52.203125 31.203125 
L 52.203125 0 
L 43.21875 0 
L 43.21875 8.296875 
Q 40.140625 3.328125 35.546875 0.953125 
Q 30.953125 -1.421875 24.3125 -1.421875 
Q 15.921875 -1.421875 10.953125 3.296875 
Q 6 8.015625 6 15.921875 
Q 6 25.140625 12.171875 29.828125 
Q 18.359375 34.515625 30.609375 34.515625 
L 43.21875 34.515625 
L 43.21875 35.40625 
Q 43.21875 41.609375 39.140625 45 
Q 35.0625 48.390625 27.6875 48.390625 
Q 23 48.390625 18.546875 47.265625 
Q 14.109375 46.140625 10.015625 43.890625 
L 10.015625 52.203125 
Q 14.9375 54.109375 19.578125 55.046875 
Q 24.21875 56 28.609375 56 
Q 40.484375 56 46.34375 49.84375 
Q 52.203125 43.703125 52.203125 31.203125 
z
" id="DejaVuSans-97"/>
      <path d="M 18.3125 70.21875 
L 18.3125 54.6875 
L 36.8125 54.6875 
L 36.8125 47.703125 
L 18.3125 47.703125 
L 18.3125 18.015625 
Q 18.3125 11.328125 20.140625 9.421875 
Q 21.96875 7.515625 27.59375 7.515625 
L 36.8125 7.515625 
L 36.8125 0 
L 27.59375 0 
Q 17.1875 0 13.234375 3.875 
Q 9.28125 7.765625 9.28125 18.015625 
L 9.28125 47.703125 
L 2.6875 47.703125 
L 2.6875 54.6875 
L 9.28125 54.6875 
L 9.28125 70.21875 
z
" id="DejaVuSans-116"/>
      <path d="M 56.203125 29.59375 
L 56.203125 25.203125 
L 14.890625 25.203125 
Q 15.484375 15.921875 20.484375 11.0625 
Q 25.484375 6.203125 34.421875 6.203125 
Q 39.59375 6.203125 44.453125 7.46875 
Q 49.3125 8.734375 54.109375 11.28125 
L 54.109375 2.78125 
Q 49.265625 0.734375 44.1875 -0.34375 
Q 39.109375 -1.421875 33.890625 -1.421875 
Q 20.796875 -1.421875 13.15625 6.1875 
Q 5.515625 13.8125 5.515625 26.8125 
Q 5.515625 40.234375 12.765625 48.109375 
Q 20.015625 56 32.328125 56 
Q 43.359375 56 49.78125 48.890625 
Q 56.203125 41.796875 56.203125 29.59375 
z
M 47.21875 32.234375 
Q 47.125 39.59375 43.09375 43.984375 
Q 39.0625 48.390625 32.421875 48.390625 
Q 24.90625 48.390625 20.390625 44.140625 
Q 15.875 39.890625 15.1875 32.171875 
z
" id="DejaVuSans-101"/>
      <path d="M 44.28125 53.078125 
L 44.28125 44.578125 
Q 40.484375 46.53125 36.375 47.5 
Q 32.28125 48.484375 27.875 48.484375 
Q 21.1875 48.484375 17.84375 46.4375 
Q 14.5 44.390625 14.5 40.28125 
Q 14.5 37.15625 16.890625 35.375 
Q 19.28125 33.59375 26.515625 31.984375 
L 29.59375 31.296875 
Q 39.15625 29.25 43.1875 25.515625 
Q 47.21875 21.78125 47.21875 15.09375 
Q 47.21875 7.46875 41.1875 3.015625 
Q 35.15625 -1.421875 24.609375 -1.421875 
Q 20.21875 -1.421875 15.453125 -0.5625 
Q 10.6875 0.296875 5.421875 2 
L 5.421875 11.28125 
Q 10.40625 8.6875 15.234375 7.390625 
Q 20.0625 6.109375 24.8125 6.109375 
Q 31.15625 6.109375 34.5625 8.28125 
Q 37.984375 10.453125 37.984375 14.40625 
Q 37.984375 18.0625 35.515625 20.015625 
Q 33.0625 21.96875 24.703125 23.78125 
L 21.578125 24.515625 
Q 13.234375 26.265625 9.515625 29.90625 
Q 5.8125 33.546875 5.8125 39.890625 
Q 5.8125 47.609375 11.28125 51.796875 
Q 16.75 56 26.8125 56 
Q 31.78125 56 36.171875 55.265625 
Q 40.578125 54.546875 44.28125 53.078125 
z
" id="DejaVuSans-115"/>
      <path id="DejaVuSans-32"/>
      <path d="M 8.59375 75.984375 
L 29.296875 75.984375 
L 29.296875 69 
L 17.578125 69 
L 17.578125 -6.203125 
L 29.296875 -6.203125 
L 29.296875 -13.1875 
L 8.59375 -13.1875 
z
" id="DejaVuSans-91"/>
      <path d="M 9.8125 72.90625 
L 19.671875 72.90625 
L 19.671875 43.015625 
L 55.515625 43.015625 
L 55.515625 72.90625 
L 65.375 72.90625 
L 65.375 0 
L 55.515625 0 
L 55.515625 34.71875 
L 19.671875 34.71875 
L 19.671875 0 
L 9.8125 0 
z
" id="DejaVuSans-72"/>
      <path d="M 5.515625 54.6875 
L 48.1875 54.6875 
L 48.1875 46.484375 
L 14.40625 7.171875 
L 48.1875 7.171875 
L 48.1875 0 
L 4.296875 0 
L 4.296875 8.203125 
L 38.09375 47.515625 
L 5.515625 47.515625 
z
" id="DejaVuSans-122"/>
      <path d="M 30.421875 75.984375 
L 30.421875 -13.1875 
L 9.71875 -13.1875 
L 9.71875 -6.203125 
L 21.390625 -6.203125 
L 21.390625 69 
L 9.71875 69 
L 9.71875 75.984375 
z
" id="DejaVuSans-93"/>
     </defs>
     <g transform="translate(25.11125 134.626473)rotate(-90)scale(0.14 -0.14)">
      <use xlink:href="#DejaVuSans-82"/>
      <use x="69.451172" xlink:href="#DejaVuSans-97"/>
      <use x="130.730469" xlink:href="#DejaVuSans-116"/>
      <use x="169.939453" xlink:href="#DejaVuSans-101"/>
      <use x="231.462891" xlink:href="#DejaVuSans-115"/>
      <use x="283.5625" xlink:href="#DejaVuSans-32"/>
      <use x="315.349609" xlink:href="#DejaVuSans-91"/>
      <use x="354.363281" xlink:href="#DejaVuSans-72"/>
      <use x="429.558594" xlink:href="#DejaVuSans-122"/>
      <use x="482.048828" xlink:href="#DejaVuSans-93"/>
     </g>
    </g>
   </g>
   <g id="line2d_7">
    <path clip-path="url(#pd96b0aafe7)" d="M 65.745313 122.38986 
L 237.057813 122.38986 
L 237.057813 122.38986 
" style="fill:none;stroke:#d62728;stroke-dasharray:11.1,4.8;stroke-dashoffset:0;stroke-width:3;"/>
   </g>
   <g id="line2d_8">
    <path clip-path="url(#pd96b0aafe7)" d="M 65.745313 53.718909 
L 237.057813 53.718909 
L 237.057813 53.718909 
" style="fill:none;stroke:#1f77b4;stroke-dasharray:11.1,4.8;stroke-dashoffset:0;stroke-width:3;"/>
   </g>
   <g id="line2d_9">
    <path clip-path="url(#pd96b0aafe7)" d="M 65.745313 167.189932 
L 133.199609 167.079067 
L 134.313141 166.850818 
L 135.126875 166.445034 
L 135.854953 165.779714 
L 136.583031 164.751679 
L 138.553125 161.792071 
L 139.152719 161.488118 
L 140.180594 161.311153 
L 141.893719 161.178126 
L 155.213266 161.147136 
L 185.064469 161.024392 
L 190.161016 160.781736 
L 193.244641 160.421937 
L 195.471703 159.947066 
L 197.270484 159.32133 
L 198.555328 158.65717 
L 199.754516 157.800476 
L 200.782391 156.805693 
L 201.767438 155.54324 
L 202.666828 154.039964 
L 203.609047 152.007445 
L 204.551266 149.4097 
L 205.579141 145.874211 
L 206.906813 140.407818 
L 209.005391 131.752306 
L 209.990438 128.652742 
L 210.847 126.644008 
L 211.660734 125.264967 
L 212.474469 124.301687 
L 213.331031 123.618552 
L 214.316078 123.120937 
L 215.515266 122.774704 
L 217.185563 122.546082 
L 219.969391 122.424314 
L 227.764109 122.390344 
L 237.057813 122.389861 
L 237.057813 122.389861 
" style="fill:none;stroke:#d62728;stroke-linecap:square;stroke-width:2;"/>
   </g>
   <g id="line2d_10">
    <path clip-path="url(#pd96b0aafe7)" d="M 65.745313 139.129912 
L 90.542797 139.240949 
L 100.950031 139.478785 
L 107.37425 139.836337 
L 109.472828 140.112467 
L 116.453813 141.468719 
L 118.766531 142.23923 
L 120.736625 143.130854 
L 122.406922 144.125215 
L 123.905906 145.274156 
L 125.19075 146.537831 
L 126.261453 147.900752 
L 127.289328 149.581877 
L 128.445688 151.938209 
L 131.572141 158.616921 
L 132.385875 159.731041 
L 133.028297 160.278302 
L 133.585063 160.486697 
L 134.056172 160.442296 
L 134.527281 160.158256 
L 134.955563 159.62603 
L 135.426672 158.6544 
L 135.897781 157.136634 
L 136.411719 154.600409 
L 136.925656 150.836484 
L 137.482422 145.000603 
L 138.167672 135.180564 
L 140.394734 100.415186 
L 140.908672 96.655923 
L 141.379781 94.747202 
L 141.850891 93.715112 
L 142.450484 92.943502 
L 143.307047 92.192489 
L 143.949469 91.894595 
L 144.891688 91.7514 
L 150.759141 91.280667 
L 158.896484 91.171551 
L 183.608313 90.936131 
L 187.762641 90.635606 
L 190.589297 90.218775 
L 192.602219 89.713562 
L 194.358172 89.0536 
L 195.899984 88.235229 
L 197.270484 87.257465 
L 198.469672 86.118064 
L 199.711688 84.627797 
L 200.825219 82.922732 
L 201.981578 80.735592 
L 203.137938 78.060813 
L 204.422781 74.498818 
L 206.05025 69.268541 
L 208.362969 61.860662 
L 209.433672 59.159835 
L 210.375891 57.355294 
L 211.232453 56.164243 
L 212.089016 55.326236 
L 213.031234 54.714681 
L 214.101938 54.287161 
L 215.472438 53.993016 
L 217.485359 53.811416 
L 221.339891 53.730318 
L 237.057813 53.71891 
L 237.057813 53.71891 
" style="fill:none;stroke:#1f77b4;stroke-linecap:square;stroke-width:2;"/>
   </g>
   <g id="patch_4">
    <path d="M 65.745313 173.466384 
L 65.745313 22.837812 
" style="fill:none;stroke:#000000;stroke-linecap:square;stroke-linejoin:miter;stroke-width:0.8;"/>
   </g>
   <g id="patch_5">
    <path d="M 237.057813 173.466384 
L 237.057813 22.837812 
" style="fill:none;stroke:#000000;stroke-linecap:square;stroke-linejoin:miter;stroke-width:0.8;"/>
   </g>
   <g id="patch_6">
    <path d="M 65.745313 173.466384 
L 237.057813 173.466384 
" style="fill:none;stroke:#000000;stroke-linecap:square;stroke-linejoin:miter;stroke-width:0.8;"/>
   </g>
   <g id="patch_7">
    <path d="M 65.745313 22.837812 
L 237.057813 22.837812 
" style="fill:none;stroke:#000000;stroke-linecap:square;stroke-linejoin:miter;stroke-width:0.8;"/>
   </g>
   <g id="text_7">
    <!-- Low to high, sparsity -->
    <defs>
     <path d="M 9.8125 72.90625 
L 19.671875 72.90625 
L 19.671875 8.296875 
L 55.171875 8.296875 
L 55.171875 0 
L 9.8125 0 
z
" id="DejaVuSans-76"/>
     <path d="M 30.609375 48.390625 
Q 23.390625 48.390625 19.1875 42.75 
Q 14.984375 37.109375 14.984375 27.296875 
Q 14.984375 17.484375 19.15625 11.84375 
Q 23.34375 6.203125 30.609375 6.203125 
Q 37.796875 6.203125 41.984375 11.859375 
Q 46.1875 17.53125 46.1875 27.296875 
Q 46.1875 37.015625 41.984375 42.703125 
Q 37.796875 48.390625 30.609375 48.390625 
z
M 30.609375 56 
Q 42.328125 56 49.015625 48.375 
Q 55.71875 40.765625 55.71875 27.296875 
Q 55.71875 13.875 49.015625 6.21875 
Q 42.328125 -1.421875 30.609375 -1.421875 
Q 18.84375 -1.421875 12.171875 6.21875 
Q 5.515625 13.875 5.515625 27.296875 
Q 5.515625 40.765625 12.171875 48.375 
Q 18.84375 56 30.609375 56 
z
" id="DejaVuSans-111"/>
     <path d="M 4.203125 54.6875 
L 13.1875 54.6875 
L 24.421875 12.015625 
L 35.59375 54.6875 
L 46.1875 54.6875 
L 57.421875 12.015625 
L 68.609375 54.6875 
L 77.59375 54.6875 
L 63.28125 0 
L 52.6875 0 
L 40.921875 44.828125 
L 29.109375 0 
L 18.5 0 
z
" id="DejaVuSans-119"/>
     <path d="M 54.890625 33.015625 
L 54.890625 0 
L 45.90625 0 
L 45.90625 32.71875 
Q 45.90625 40.484375 42.875 44.328125 
Q 39.84375 48.1875 33.796875 48.1875 
Q 26.515625 48.1875 22.3125 43.546875 
Q 18.109375 38.921875 18.109375 30.90625 
L 18.109375 0 
L 9.078125 0 
L 9.078125 75.984375 
L 18.109375 75.984375 
L 18.109375 46.1875 
Q 21.34375 51.125 25.703125 53.5625 
Q 30.078125 56 35.796875 56 
Q 45.21875 56 50.046875 50.171875 
Q 54.890625 44.34375 54.890625 33.015625 
z
" id="DejaVuSans-104"/>
     <path d="M 9.421875 54.6875 
L 18.40625 54.6875 
L 18.40625 0 
L 9.421875 0 
z
M 9.421875 75.984375 
L 18.40625 75.984375 
L 18.40625 64.59375 
L 9.421875 64.59375 
z
" id="DejaVuSans-105"/>
     <path d="M 45.40625 27.984375 
Q 45.40625 37.75 41.375 43.109375 
Q 37.359375 48.484375 30.078125 48.484375 
Q 22.859375 48.484375 18.828125 43.109375 
Q 14.796875 37.75 14.796875 27.984375 
Q 14.796875 18.265625 18.828125 12.890625 
Q 22.859375 7.515625 30.078125 7.515625 
Q 37.359375 7.515625 41.375 12.890625 
Q 45.40625 18.265625 45.40625 27.984375 
z
M 54.390625 6.78125 
Q 54.390625 -7.171875 48.1875 -13.984375 
Q 42 -20.796875 29.203125 -20.796875 
Q 24.46875 -20.796875 20.265625 -20.09375 
Q 16.0625 -19.390625 12.109375 -17.921875 
L 12.109375 -9.1875 
Q 16.0625 -11.328125 19.921875 -12.34375 
Q 23.78125 -13.375 27.78125 -13.375 
Q 36.625 -13.375 41.015625 -8.765625 
Q 45.40625 -4.15625 45.40625 5.171875 
L 45.40625 9.625 
Q 42.625 4.78125 38.28125 2.390625 
Q 33.9375 0 27.875 0 
Q 17.828125 0 11.671875 7.65625 
Q 5.515625 15.328125 5.515625 27.984375 
Q 5.515625 40.671875 11.671875 48.328125 
Q 17.828125 56 27.875 56 
Q 33.9375 56 38.28125 53.609375 
Q 42.625 51.21875 45.40625 46.390625 
L 45.40625 54.6875 
L 54.390625 54.6875 
z
" id="DejaVuSans-103"/>
     <path d="M 11.71875 12.40625 
L 22.015625 12.40625 
L 22.015625 4 
L 14.015625 -11.625 
L 7.71875 -11.625 
L 11.71875 4 
z
" id="DejaVuSans-44"/>
     <path d="M 18.109375 8.203125 
L 18.109375 -20.796875 
L 9.078125 -20.796875 
L 9.078125 54.6875 
L 18.109375 54.6875 
L 18.109375 46.390625 
Q 20.953125 51.265625 25.265625 53.625 
Q 29.59375 56 35.59375 56 
Q 45.5625 56 51.78125 48.09375 
Q 58.015625 40.1875 58.015625 27.296875 
Q 58.015625 14.40625 51.78125 6.484375 
Q 45.5625 -1.421875 35.59375 -1.421875 
Q 29.59375 -1.421875 25.265625 0.953125 
Q 20.953125 3.328125 18.109375 8.203125 
z
M 48.6875 27.296875 
Q 48.6875 37.203125 44.609375 42.84375 
Q 40.53125 48.484375 33.40625 48.484375 
Q 26.265625 48.484375 22.1875 42.84375 
Q 18.109375 37.203125 18.109375 27.296875 
Q 18.109375 17.390625 22.1875 11.75 
Q 26.265625 6.109375 33.40625 6.109375 
Q 40.53125 6.109375 44.609375 11.75 
Q 48.6875 17.390625 48.6875 27.296875 
z
" id="DejaVuSans-112"/>
     <path d="M 41.109375 46.296875 
Q 39.59375 47.171875 37.8125 47.578125 
Q 36.03125 48 33.890625 48 
Q 26.265625 48 22.1875 43.046875 
Q 18.109375 38.09375 18.109375 28.8125 
L 18.109375 0 
L 9.078125 0 
L 9.078125 54.6875 
L 18.109375 54.6875 
L 18.109375 46.1875 
Q 20.953125 51.171875 25.484375 53.578125 
Q 30.03125 56 36.53125 56 
Q 37.453125 56 38.578125 55.875 
Q 39.703125 55.765625 41.0625 55.515625 
z
" id="DejaVuSans-114"/>
     <path d="M 32.171875 -5.078125 
Q 28.375 -14.84375 24.75 -17.8125 
Q 21.140625 -20.796875 15.09375 -20.796875 
L 7.90625 -20.796875 
L 7.90625 -13.28125 
L 13.1875 -13.28125 
Q 16.890625 -13.28125 18.9375 -11.515625 
Q 21 -9.765625 23.484375 -3.21875 
L 25.09375 0.875 
L 2.984375 54.6875 
L 12.5 54.6875 
L 29.59375 11.921875 
L 46.6875 54.6875 
L 56.203125 54.6875 
z
" id="DejaVuSans-121"/>
    </defs>
    <g transform="translate(78.570937 17.837812)scale(0.14 -0.14)">
     <use xlink:href="#DejaVuSans-76"/>
     <use x="55.697266" xlink:href="#DejaVuSans-111"/>
     <use x="116.878906" xlink:href="#DejaVuSans-119"/>
     <use x="198.666016" xlink:href="#DejaVuSans-32"/>
     <use x="230.453125" xlink:href="#DejaVuSans-116"/>
     <use x="269.662109" xlink:href="#DejaVuSans-111"/>
     <use x="330.84375" xlink:href="#DejaVuSans-32"/>
     <use x="362.630859" xlink:href="#DejaVuSans-104"/>
     <use x="426.009766" xlink:href="#DejaVuSans-105"/>
     <use x="453.792969" xlink:href="#DejaVuSans-103"/>
     <use x="517.269531" xlink:href="#DejaVuSans-104"/>
     <use x="580.648438" xlink:href="#DejaVuSans-44"/>
     <use x="612.435547" xlink:href="#DejaVuSans-32"/>
     <use x="644.222656" xlink:href="#DejaVuSans-115"/>
     <use x="696.322266" xlink:href="#DejaVuSans-112"/>
     <use x="759.798828" xlink:href="#DejaVuSans-97"/>
     <use x="821.078125" xlink:href="#DejaVuSans-114"/>
     <use x="862.191406" xlink:href="#DejaVuSans-115"/>
     <use x="914.291016" xlink:href="#DejaVuSans-105"/>
     <use x="942.074219" xlink:href="#DejaVuSans-116"/>
     <use x="981.283203" xlink:href="#DejaVuSans-121"/>
    </g>
   </g>
  </g>
  <g id="axes_2">
   <g id="patch_8">
    <path d="M 265.420313 173.466384 
L 436.732813 173.466384 
L 436.732813 22.837812 
L 265.420313 22.837812 
z
" style="fill:#ffffff;"/>
   </g>
   <g id="patch_9">
    <path clip-path="url(#p1693abb379)" d="M 428.167188 173.466384 
L 428.167188 22.837812 
L 436.732813 22.837812 
L 436.732813 173.466384 
z
" style="fill:url(#h1fe752d45d);opacity:0.2;stroke:#808080;stroke-linejoin:miter;"/>
   </g>
   <g id="line2d_11">
    <path clip-path="url(#p1693abb379)" d="M 265.420313 167.190193 
L 436.732813 167.190193 
" style="fill:none;stroke:#808080;stroke-linecap:square;"/>
   </g>
   <g id="matplotlib.axis_3"/>
   <g id="matplotlib.axis_4"/>
   <g id="line2d_12">
    <path clip-path="url(#p1693abb379)" d="M 265.420313 122.38986 
L 436.732813 122.38986 
L 436.732813 122.38986 
" style="fill:none;stroke:#d62728;stroke-dasharray:11.1,4.8;stroke-dashoffset:0;stroke-width:3;"/>
   </g>
   <g id="line2d_13">
    <path clip-path="url(#p1693abb379)" d="M 265.420313 53.718909 
L 436.732813 53.718909 
L 436.732813 53.718909 
" style="fill:none;stroke:#1f77b4;stroke-dasharray:11.1,4.8;stroke-dashoffset:0;stroke-width:3;"/>
   </g>
   <g id="line2d_14">
    <path clip-path="url(#p1693abb379)" d="M 265.420313 167.189932 
L 332.360672 167.081913 
L 333.559859 166.857513 
L 334.45925 166.441145 
L 335.358641 165.699482 
L 337.757016 163.360861 
L 339.041859 162.644685 
L 340.112563 162.287802 
L 342.468109 161.826464 
L 345.380422 161.503162 
L 349.449094 161.295796 
L 356.772703 161.177246 
L 381.356047 161.122726 
L 391.035203 160.963906 
L 395.232359 160.691098 
L 398.016188 160.298429 
L 399.986281 159.81438 
L 401.656578 159.179884 
L 403.027078 158.401081 
L 404.140609 157.524685 
L 405.125656 156.489478 
L 406.025047 155.257404 
L 406.967266 153.586435 
L 407.866656 151.532889 
L 408.808875 148.813474 
L 409.879578 144.978728 
L 411.421391 138.462269 
L 413.048859 131.840388 
L 414.033906 128.719914 
L 414.890469 126.693327 
L 415.704203 125.300096 
L 416.517938 124.325841 
L 417.3745 123.634439 
L 418.359547 123.13057 
L 419.558734 122.779811 
L 421.186203 122.551863 
L 423.884375 122.427141 
L 431.250813 122.38934 
L 436.732813 122.389817 
L 436.732813 122.389817 
" style="fill:none;stroke:#d62728;stroke-linecap:square;stroke-width:2;"/>
   </g>
   <g id="line2d_15">
    <path clip-path="url(#p1693abb379)" d="M 265.420313 139.129912 
L 293.258594 139.240564 
L 303.665828 139.477787 
L 308.719547 139.781403 
L 312.402766 140.218094 
L 315.914672 140.764639 
L 318.6985 141.410899 
L 321.054047 142.17916 
L 322.981313 143.034956 
L 324.651609 144.009119 
L 326.064938 145.083826 
L 327.135641 146.170425 
L 328.035031 147.400412 
L 328.934422 149.023165 
L 330.176438 151.787708 
L 331.375625 154.302811 
L 332.018047 155.214887 
L 332.531984 155.608887 
L 332.960266 155.663335 
L 333.345719 155.480109 
L 333.731172 155.042123 
L 334.202281 154.134763 
L 334.716219 152.613712 
L 335.315813 150.064377 
L 336.001063 146.045045 
L 336.729141 140.383819 
L 337.542875 132.13943 
L 339.855594 106.859679 
L 340.540844 102.827083 
L 341.226094 100.087314 
L 341.868516 98.335326 
L 342.596594 96.96821 
L 343.495984 95.778286 
L 344.609516 94.672687 
L 345.808703 93.794276 
L 347.222031 93.051169 
L 348.721016 92.502867 
L 350.776766 92.010633 
L 353.303625 91.649574 
L 356.772703 91.387196 
L 362.169047 91.224183 
L 373.989609 91.14447 
L 386.409766 90.986885 
L 391.035203 90.715118 
L 394.076 90.325547 
L 396.260234 89.835968 
L 398.101844 89.194852 
L 399.686484 88.404723 
L 401.099813 87.449696 
L 402.299 86.367397 
L 403.541016 84.943455 
L 404.611719 83.389073 
L 405.768078 81.311084 
L 406.924438 78.759214 
L 408.166453 75.450608 
L 409.665438 70.781138 
L 412.706234 61.105178 
L 413.734109 58.66393 
L 414.6335 57.057204 
L 415.490063 55.950585 
L 416.346625 55.180691 
L 417.288844 54.621434 
L 418.402375 54.221453 
L 419.858531 53.950031 
L 422.085594 53.788264 
L 426.796688 53.724297 
L 436.732813 53.71888 
L 436.732813 53.71888 
" style="fill:none;stroke:#1f77b4;stroke-linecap:square;stroke-width:2;"/>
   </g>
   <g id="patch_10">
    <path d="M 265.420313 173.466384 
L 265.420313 22.837812 
" style="fill:none;stroke:#000000;stroke-linecap:square;stroke-linejoin:miter;stroke-width:0.8;"/>
   </g>
   <g id="patch_11">
    <path d="M 436.732813 173.466384 
L 436.732813 22.837812 
" style="fill:none;stroke:#000000;stroke-linecap:square;stroke-linejoin:miter;stroke-width:0.8;"/>
   </g>
   <g id="patch_12">
    <path d="M 265.420313 173.466384 
L 436.732813 173.466384 
" style="fill:none;stroke:#000000;stroke-linecap:square;stroke-linejoin:miter;stroke-width:0.8;"/>
   </g>
   <g id="patch_13">
    <path d="M 265.420313 22.837812 
L 436.732813 22.837812 
" style="fill:none;stroke:#000000;stroke-linecap:square;stroke-linejoin:miter;stroke-width:0.8;"/>
   </g>
   <g id="text_8">
    <!-- Low to high, energy -->
    <defs>
     <path d="M 54.890625 33.015625 
L 54.890625 0 
L 45.90625 0 
L 45.90625 32.71875 
Q 45.90625 40.484375 42.875 44.328125 
Q 39.84375 48.1875 33.796875 48.1875 
Q 26.515625 48.1875 22.3125 43.546875 
Q 18.109375 38.921875 18.109375 30.90625 
L 18.109375 0 
L 9.078125 0 
L 9.078125 54.6875 
L 18.109375 54.6875 
L 18.109375 46.1875 
Q 21.34375 51.125 25.703125 53.5625 
Q 30.078125 56 35.796875 56 
Q 45.21875 56 50.046875 50.171875 
Q 54.890625 44.34375 54.890625 33.015625 
z
" id="DejaVuSans-110"/>
    </defs>
    <g transform="translate(281.468125 17.837812)scale(0.14 -0.14)">
     <use xlink:href="#DejaVuSans-76"/>
     <use x="55.697266" xlink:href="#DejaVuSans-111"/>
     <use x="116.878906" xlink:href="#DejaVuSans-119"/>
     <use x="198.666016" xlink:href="#DejaVuSans-32"/>
     <use x="230.453125" xlink:href="#DejaVuSans-116"/>
     <use x="269.662109" xlink:href="#DejaVuSans-111"/>
     <use x="330.84375" xlink:href="#DejaVuSans-32"/>
     <use x="362.630859" xlink:href="#DejaVuSans-104"/>
     <use x="426.009766" xlink:href="#DejaVuSans-105"/>
     <use x="453.792969" xlink:href="#DejaVuSans-103"/>
     <use x="517.269531" xlink:href="#DejaVuSans-104"/>
     <use x="580.648438" xlink:href="#DejaVuSans-44"/>
     <use x="612.435547" xlink:href="#DejaVuSans-32"/>
     <use x="644.222656" xlink:href="#DejaVuSans-101"/>
     <use x="705.746094" xlink:href="#DejaVuSans-110"/>
     <use x="769.125" xlink:href="#DejaVuSans-101"/>
     <use x="830.648438" xlink:href="#DejaVuSans-114"/>
     <use x="871.746094" xlink:href="#DejaVuSans-103"/>
     <use x="935.222656" xlink:href="#DejaVuSans-121"/>
    </g>
   </g>
  </g>
  <g id="axes_3">
   <g id="patch_14">
    <path d="M 465.095313 173.466384 
L 636.407813 173.466384 
L 636.407813 22.837812 
L 465.095313 22.837812 
z
" style="fill:#ffffff;"/>
   </g>
   <g id="patch_15">
    <path clip-path="url(#pb174194041)" d="M 627.842188 173.466384 
L 627.842188 22.837812 
L 636.407813 22.837812 
L 636.407813 173.466384 
z
" style="fill:url(#h1fe752d45d);opacity:0.2;stroke:#808080;stroke-linejoin:miter;"/>
   </g>
   <g id="line2d_16">
    <path clip-path="url(#pb174194041)" d="M 465.095313 167.190193 
L 636.407813 167.190193 
" style="fill:none;stroke:#808080;stroke-linecap:square;"/>
   </g>
   <g id="matplotlib.axis_5"/>
   <g id="matplotlib.axis_6"/>
   <g id="line2d_17">
    <path clip-path="url(#pb174194041)" d="M 465.095313 167.189932 
L 636.407813 167.189932 
L 636.407813 167.189932 
" style="fill:none;stroke:#d62728;stroke-dasharray:11.1,4.8;stroke-dashoffset:0;stroke-width:3;"/>
   </g>
   <g id="line2d_18">
    <path clip-path="url(#pb174194041)" d="M 465.095313 139.129912 
L 636.407813 139.129912 
L 636.407813 139.129912 
" style="fill:none;stroke:#1f77b4;stroke-dasharray:11.1,4.8;stroke-dashoffset:0;stroke-width:3;"/>
   </g>
   <g id="line2d_19">
    <path clip-path="url(#pb174194041)" d="M 465.095313 122.38986 
L 517.388453 122.498574 
L 519.529859 122.736446 
L 520.857531 123.098503 
L 521.842578 123.585519 
L 522.699141 124.262615 
L 523.470047 125.169964 
L 524.198125 126.38698 
L 524.926203 128.052241 
L 525.697109 130.403495 
L 526.553672 133.769493 
L 527.752859 139.503082 
L 529.465984 147.543029 
L 530.408203 150.874293 
L 531.307594 153.255753 
L 532.206984 155.029567 
L 533.149203 156.422575 
L 534.13425 157.504295 
L 535.333438 158.462758 
L 536.661109 159.209203 
L 538.160094 159.792108 
L 539.916047 160.247211 
L 542.485734 160.658903 
L 545.612188 160.912877 
L 550.665906 161.071789 
L 562.400813 161.140787 
L 585.185375 161.285341 
L 590.067781 161.541551 
L 593.451203 161.939217 
L 596.020891 162.468617 
L 598.119469 163.106509 
L 600.175219 163.928615 
L 606.470953 166.678465 
L 608.14125 166.998056 
L 610.068516 167.137066 
L 614.736781 167.184787 
L 636.407813 167.189846 
L 636.407813 167.189846 
" style="fill:none;stroke:#d62728;stroke-linecap:square;stroke-width:2;"/>
   </g>
   <g id="line2d_20">
    <path clip-path="url(#pb174194041)" d="M 465.095313 53.718909 
L 522.185203 53.829608 
L 524.326609 54.071579 
L 525.654281 54.437566 
L 526.639328 54.928537 
L 527.495891 55.606144 
L 528.266797 56.504525 
L 529.037703 57.765979 
L 529.851438 59.564827 
L 530.750828 62.11617 
L 532.249813 67.191333 
L 534.305563 73.980178 
L 535.718891 77.879563 
L 537.003734 80.781032 
L 538.202922 82.97925 
L 539.402109 84.745372 
L 540.686953 86.250532 
L 541.928969 87.382925 
L 543.385125 88.391066 
L 544.969766 89.22747 
L 546.597234 89.816614 
L 548.567328 90.303907 
L 551.137016 90.679212 
L 554.477609 90.921017 
L 559.959609 91.080189 
L 572.979359 91.170635 
L 582.530031 91.341195 
L 586.770016 91.625 
L 589.596672 92.024226 
L 591.738078 92.543696 
L 593.494031 93.196859 
L 595.035844 93.987097 
L 596.363516 94.925016 
L 597.562703 96.047754 
L 598.804719 97.518465 
L 599.832594 99.081127 
L 600.988953 101.256937 
L 602.102484 103.864007 
L 603.216016 107.045864 
L 604.415203 111.144335 
L 605.914188 117.130717 
L 609.211953 130.675914 
L 610.197 133.669856 
L 611.053563 135.619235 
L 611.824469 136.874932 
L 612.595375 137.727845 
L 613.409109 138.296604 
L 614.351328 138.670129 
L 615.593344 138.904494 
L 617.73475 139.044246 
L 623.21675 139.112626 
L 636.407813 139.128013 
L 636.407813 139.128013 
" style="fill:none;stroke:#1f77b4;stroke-linecap:square;stroke-width:2;"/>
   </g>
   <g id="patch_16">
    <path d="M 465.095313 173.466384 
L 465.095313 22.837812 
" style="fill:none;stroke:#000000;stroke-linecap:square;stroke-linejoin:miter;stroke-width:0.8;"/>
   </g>
   <g id="patch_17">
    <path d="M 636.407813 173.466384 
L 636.407813 22.837812 
" style="fill:none;stroke:#000000;stroke-linecap:square;stroke-linejoin:miter;stroke-width:0.8;"/>
   </g>
   <g id="patch_18">
    <path d="M 465.095313 173.466384 
L 636.407813 173.466384 
" style="fill:none;stroke:#000000;stroke-linecap:square;stroke-linejoin:miter;stroke-width:0.8;"/>
   </g>
   <g id="patch_19">
    <path d="M 465.095313 22.837812 
L 636.407813 22.837812 
" style="fill:none;stroke:#000000;stroke-linecap:square;stroke-linejoin:miter;stroke-width:0.8;"/>
   </g>
   <g id="text_9">
    <!-- High to low, sparsity -->
    <defs>
     <path d="M 9.421875 75.984375 
L 18.40625 75.984375 
L 18.40625 0 
L 9.421875 0 
z
" id="DejaVuSans-108"/>
    </defs>
    <g transform="translate(479.0475 17.837812)scale(0.14 -0.14)">
     <use xlink:href="#DejaVuSans-72"/>
     <use x="75.195312" xlink:href="#DejaVuSans-105"/>
     <use x="102.978516" xlink:href="#DejaVuSans-103"/>
     <use x="166.455078" xlink:href="#DejaVuSans-104"/>
     <use x="229.833984" xlink:href="#DejaVuSans-32"/>
     <use x="261.621094" xlink:href="#DejaVuSans-116"/>
     <use x="300.830078" xlink:href="#DejaVuSans-111"/>
     <use x="362.011719" xlink:href="#DejaVuSans-32"/>
     <use x="393.798828" xlink:href="#DejaVuSans-108"/>
     <use x="421.582031" xlink:href="#DejaVuSans-111"/>
     <use x="482.763672" xlink:href="#DejaVuSans-119"/>
     <use x="564.550781" xlink:href="#DejaVuSans-44"/>
     <use x="596.337891" xlink:href="#DejaVuSans-32"/>
     <use x="628.125" xlink:href="#DejaVuSans-115"/>
     <use x="680.224609" xlink:href="#DejaVuSans-112"/>
     <use x="743.701172" xlink:href="#DejaVuSans-97"/>
     <use x="804.980469" xlink:href="#DejaVuSans-114"/>
     <use x="846.09375" xlink:href="#DejaVuSans-115"/>
     <use x="898.193359" xlink:href="#DejaVuSans-105"/>
     <use x="925.976562" xlink:href="#DejaVuSans-116"/>
     <use x="965.185547" xlink:href="#DejaVuSans-121"/>
    </g>
   </g>
  </g>
  <g id="axes_4">
   <g id="patch_20">
    <path d="M 664.770313 173.466384 
L 836.082813 173.466384 
L 836.082813 22.837812 
L 664.770313 22.837812 
z
" style="fill:#ffffff;"/>
   </g>
   <g id="patch_21">
    <path clip-path="url(#pca7a771021)" d="M 827.517188 173.466384 
L 827.517188 22.837812 
L 836.082813 22.837812 
L 836.082813 173.466384 
z
" style="fill:url(#h1fe752d45d);opacity:0.2;stroke:#808080;stroke-linejoin:miter;"/>
   </g>
   <g id="line2d_21">
    <path clip-path="url(#pca7a771021)" d="M 664.770313 167.190193 
L 836.082813 167.190193 
" style="fill:none;stroke:#808080;stroke-linecap:square;"/>
   </g>
   <g id="matplotlib.axis_7"/>
   <g id="matplotlib.axis_8"/>
   <g id="line2d_22">
    <path clip-path="url(#pca7a771021)" d="M 664.770313 167.189932 
L 836.082813 167.189932 
L 836.082813 167.189932 
" style="fill:none;stroke:#d62728;stroke-dasharray:11.1,4.8;stroke-dashoffset:0;stroke-width:3;"/>
   </g>
   <g id="line2d_23">
    <path clip-path="url(#pca7a771021)" d="M 664.770313 139.129912 
L 836.082813 139.129912 
L 836.082813 139.129912 
" style="fill:none;stroke:#1f77b4;stroke-dasharray:11.1,4.8;stroke-dashoffset:0;stroke-width:3;"/>
   </g>
   <g id="line2d_24">
    <path clip-path="url(#pca7a771021)" d="M 664.770313 122.38986 
L 712.737813 122.500278 
L 714.836391 122.734225 
L 716.164063 123.093963 
L 717.149109 123.57758 
L 718.005672 124.248227 
L 718.776578 125.144262 
L 719.504656 126.340773 
L 720.232734 127.967943 
L 721.003641 130.248025 
L 721.903031 133.662351 
L 723.187875 139.570047 
L 724.858172 147.061014 
L 725.843219 150.487531 
L 726.785438 152.987193 
L 727.727656 154.863166 
L 728.712703 156.324765 
L 729.69775 157.41143 
L 730.768453 158.286657 
L 731.967641 159.00419 
L 733.338141 159.582583 
L 735.17975 160.116933 
L 737.620953 160.523717 
L 740.66175 160.801236 
L 745.672641 161.023143 
L 753.895641 161.130531 
L 785.502797 161.313359 
L 789.99975 161.583546 
L 793.297516 162.003948 
L 795.824375 162.556912 
L 797.965781 163.243498 
L 800.150016 164.167767 
L 803.190813 165.639221 
L 804.989594 166.387357 
L 806.488578 166.811791 
L 808.201703 167.061418 
L 810.385938 167.159582 
L 817.024297 167.187766 
L 836.082813 167.189849 
L 836.082813 167.189849 
" style="fill:none;stroke:#d62728;stroke-linecap:square;stroke-width:2;"/>
   </g>
   <g id="line2d_25">
    <path clip-path="url(#pca7a771021)" d="M 664.770313 53.718909 
L 721.260609 53.826513 
L 722.16 54.13203 
L 722.930906 54.632849 
L 723.658984 55.391639 
L 724.387063 56.496328 
L 725.157969 58.085108 
L 726.057359 60.46435 
L 727.385031 64.715529 
L 730.297344 74.232478 
L 731.710672 78.009243 
L 732.995516 80.811405 
L 734.280359 83.085165 
L 735.436719 84.71067 
L 736.807219 86.247122 
L 737.963578 87.248249 
L 739.462563 88.223415 
L 740.961547 88.960248 
L 742.803156 89.594481 
L 745.415672 90.237812 
L 748.927578 90.700342 
L 752.99625 91.010837 
L 765.287922 91.1451 
L 781.0915 91.307935 
L 785.716938 91.575519 
L 788.714906 91.961769 
L 790.941969 92.467719 
L 792.697922 93.087138 
L 794.325391 93.885578 
L 795.653063 94.788137 
L 796.85225 95.869535 
L 798.137094 97.348794 
L 799.164969 98.866366 
L 800.364156 101.079155 
L 801.477688 103.646293 
L 802.591219 106.782094 
L 803.790406 110.829626 
L 805.289391 116.769228 
L 808.715641 130.823429 
L 809.700688 133.783355 
L 810.55725 135.701888 
L 811.328156 136.93276 
L 812.099063 137.765624 
L 812.912797 138.319426 
L 813.855016 138.682165 
L 815.139859 138.914448 
L 817.366922 139.049664 
L 823.277203 139.114842 
L 836.082813 139.128065 
L 836.082813 139.128065 
" style="fill:none;stroke:#1f77b4;stroke-linecap:square;stroke-width:2;"/>
   </g>
   <g id="patch_22">
    <path d="M 664.770313 173.466384 
L 664.770313 22.837812 
" style="fill:none;stroke:#000000;stroke-linecap:square;stroke-linejoin:miter;stroke-width:0.8;"/>
   </g>
   <g id="patch_23">
    <path d="M 836.082813 173.466384 
L 836.082813 22.837812 
" style="fill:none;stroke:#000000;stroke-linecap:square;stroke-linejoin:miter;stroke-width:0.8;"/>
   </g>
   <g id="patch_24">
    <path d="M 664.770313 173.466384 
L 836.082813 173.466384 
" style="fill:none;stroke:#000000;stroke-linecap:square;stroke-linejoin:miter;stroke-width:0.8;"/>
   </g>
   <g id="patch_25">
    <path d="M 664.770313 22.837812 
L 836.082813 22.837812 
" style="fill:none;stroke:#000000;stroke-linecap:square;stroke-linejoin:miter;stroke-width:0.8;"/>
   </g>
   <g id="text_10">
    <!-- High to low, energy -->
    <g transform="translate(681.944688 17.837812)scale(0.14 -0.14)">
     <use xlink:href="#DejaVuSans-72"/>
     <use x="75.195312" xlink:href="#DejaVuSans-105"/>
     <use x="102.978516" xlink:href="#DejaVuSans-103"/>
     <use x="166.455078" xlink:href="#DejaVuSans-104"/>
     <use x="229.833984" xlink:href="#DejaVuSans-32"/>
     <use x="261.621094" xlink:href="#DejaVuSans-116"/>
     <use x="300.830078" xlink:href="#DejaVuSans-111"/>
     <use x="362.011719" xlink:href="#DejaVuSans-32"/>
     <use x="393.798828" xlink:href="#DejaVuSans-108"/>
     <use x="421.582031" xlink:href="#DejaVuSans-111"/>
     <use x="482.763672" xlink:href="#DejaVuSans-119"/>
     <use x="564.550781" xlink:href="#DejaVuSans-44"/>
     <use x="596.337891" xlink:href="#DejaVuSans-32"/>
     <use x="628.125" xlink:href="#DejaVuSans-101"/>
     <use x="689.648438" xlink:href="#DejaVuSans-110"/>
     <use x="753.027344" xlink:href="#DejaVuSans-101"/>
     <use x="814.550781" xlink:href="#DejaVuSans-114"/>
     <use x="855.648438" xlink:href="#DejaVuSans-103"/>
     <use x="919.125" xlink:href="#DejaVuSans-121"/>
    </g>
   </g>
  </g>
  <g id="axes_5">
   <g id="patch_26">
    <path d="M 65.745313 306.237812 
L 237.057813 306.237812 
L 237.057813 193.266384 
L 65.745313 193.266384 
z
" style="fill:#ffffff;"/>
   </g>
   <g id="line2d_26">
    <path clip-path="url(#pfe3fde2165)" d="M 65.745313 230.923527 
L 237.057813 230.923527 
" style="fill:none;stroke:#808080;stroke-linecap:square;"/>
   </g>
   <g id="matplotlib.axis_9">
    <g id="xtick_1">
     <g id="line2d_27">
      <defs>
       <path d="M 0 0 
L 0 3.5 
" id="m1104b623ef" style="stroke:#000000;stroke-width:0.8;"/>
      </defs>
      <g>
       <use style="stroke:#000000;stroke-width:0.8;" x="65.745313" xlink:href="#m1104b623ef" y="306.237812"/>
      </g>
     </g>
     <g id="text_11">
      <!-- 0 -->
      <g transform="translate(61.291563 323.875625)scale(0.14 -0.14)">
       <use xlink:href="#DejaVuSans-48"/>
      </g>
     </g>
    </g>
    <g id="xtick_2">
     <g id="line2d_28">
      <g>
       <use style="stroke:#000000;stroke-width:0.8;" x="108.573438" xlink:href="#m1104b623ef" y="306.237812"/>
      </g>
     </g>
     <g id="text_12">
      <!-- 100 -->
      <g transform="translate(95.212188 323.875625)scale(0.14 -0.14)">
       <use xlink:href="#DejaVuSans-49"/>
       <use x="63.623047" xlink:href="#DejaVuSans-48"/>
       <use x="127.246094" xlink:href="#DejaVuSans-48"/>
      </g>
     </g>
    </g>
    <g id="xtick_3">
     <g id="line2d_29">
      <g>
       <use style="stroke:#000000;stroke-width:0.8;" x="151.401563" xlink:href="#m1104b623ef" y="306.237812"/>
      </g>
     </g>
     <g id="text_13">
      <!-- 200 -->
      <g transform="translate(138.040312 323.875625)scale(0.14 -0.14)">
       <use xlink:href="#DejaVuSans-50"/>
       <use x="63.623047" xlink:href="#DejaVuSans-48"/>
       <use x="127.246094" xlink:href="#DejaVuSans-48"/>
      </g>
     </g>
    </g>
    <g id="xtick_4">
     <g id="line2d_30">
      <g>
       <use style="stroke:#000000;stroke-width:0.8;" x="194.229688" xlink:href="#m1104b623ef" y="306.237812"/>
      </g>
     </g>
     <g id="text_14">
      <!-- 300 -->
      <defs>
       <path d="M 40.578125 39.3125 
Q 47.65625 37.796875 51.625 33 
Q 55.609375 28.21875 55.609375 21.1875 
Q 55.609375 10.40625 48.1875 4.484375 
Q 40.765625 -1.421875 27.09375 -1.421875 
Q 22.515625 -1.421875 17.65625 -0.515625 
Q 12.796875 0.390625 7.625 2.203125 
L 7.625 11.71875 
Q 11.71875 9.328125 16.59375 8.109375 
Q 21.484375 6.890625 26.8125 6.890625 
Q 36.078125 6.890625 40.9375 10.546875 
Q 45.796875 14.203125 45.796875 21.1875 
Q 45.796875 27.640625 41.28125 31.265625 
Q 36.765625 34.90625 28.71875 34.90625 
L 20.21875 34.90625 
L 20.21875 43.015625 
L 29.109375 43.015625 
Q 36.375 43.015625 40.234375 45.921875 
Q 44.09375 48.828125 44.09375 54.296875 
Q 44.09375 59.90625 40.109375 62.90625 
Q 36.140625 65.921875 28.71875 65.921875 
Q 24.65625 65.921875 20.015625 65.03125 
Q 15.375 64.15625 9.8125 62.3125 
L 9.8125 71.09375 
Q 15.4375 72.65625 20.34375 73.4375 
Q 25.25 74.21875 29.59375 74.21875 
Q 40.828125 74.21875 47.359375 69.109375 
Q 53.90625 64.015625 53.90625 55.328125 
Q 53.90625 49.265625 50.4375 45.09375 
Q 46.96875 40.921875 40.578125 39.3125 
z
" id="DejaVuSans-51"/>
      </defs>
      <g transform="translate(180.868438 323.875625)scale(0.14 -0.14)">
       <use xlink:href="#DejaVuSans-51"/>
       <use x="63.623047" xlink:href="#DejaVuSans-48"/>
       <use x="127.246094" xlink:href="#DejaVuSans-48"/>
      </g>
     </g>
    </g>
    <g id="xtick_5">
     <g id="line2d_31">
      <g>
       <use style="stroke:#000000;stroke-width:0.8;" x="237.057813" xlink:href="#m1104b623ef" y="306.237812"/>
      </g>
     </g>
     <g id="text_15">
      <!-- 400 -->
      <defs>
       <path d="M 37.796875 64.3125 
L 12.890625 25.390625 
L 37.796875 25.390625 
z
M 35.203125 72.90625 
L 47.609375 72.90625 
L 47.609375 25.390625 
L 58.015625 25.390625 
L 58.015625 17.1875 
L 47.609375 17.1875 
L 47.609375 0 
L 37.796875 0 
L 37.796875 17.1875 
L 4.890625 17.1875 
L 4.890625 26.703125 
z
" id="DejaVuSans-52"/>
      </defs>
      <g transform="translate(223.696563 323.875625)scale(0.14 -0.14)">
       <use xlink:href="#DejaVuSans-52"/>
       <use x="63.623047" xlink:href="#DejaVuSans-48"/>
       <use x="127.246094" xlink:href="#DejaVuSans-48"/>
      </g>
     </g>
    </g>
    <g id="text_16">
     <!-- t [ms] -->
     <defs>
      <path d="M 52 44.1875 
Q 55.375 50.25 60.0625 53.125 
Q 64.75 56 71.09375 56 
Q 79.640625 56 84.28125 50.015625 
Q 88.921875 44.046875 88.921875 33.015625 
L 88.921875 0 
L 79.890625 0 
L 79.890625 32.71875 
Q 79.890625 40.578125 77.09375 44.375 
Q 74.3125 48.1875 68.609375 48.1875 
Q 61.625 48.1875 57.5625 43.546875 
Q 53.515625 38.921875 53.515625 30.90625 
L 53.515625 0 
L 44.484375 0 
L 44.484375 32.71875 
Q 44.484375 40.625 41.703125 44.40625 
Q 38.921875 48.1875 33.109375 48.1875 
Q 26.21875 48.1875 22.15625 43.53125 
Q 18.109375 38.875 18.109375 30.90625 
L 18.109375 0 
L 9.078125 0 
L 9.078125 54.6875 
L 18.109375 54.6875 
L 18.109375 46.1875 
Q 21.1875 51.21875 25.484375 53.609375 
Q 29.78125 56 35.6875 56 
Q 41.65625 56 45.828125 52.96875 
Q 50 49.953125 52 44.1875 
z
" id="DejaVuSans-109"/>
     </defs>
     <g transform="translate(130.505469 341.425)scale(0.14 -0.14)">
      <use xlink:href="#DejaVuSans-116"/>
      <use x="39.208984" xlink:href="#DejaVuSans-32"/>
      <use x="70.996094" xlink:href="#DejaVuSans-91"/>
      <use x="110.009766" xlink:href="#DejaVuSans-109"/>
      <use x="207.421875" xlink:href="#DejaVuSans-115"/>
      <use x="259.521484" xlink:href="#DejaVuSans-93"/>
     </g>
    </g>
   </g>
   <g id="matplotlib.axis_10">
    <g id="ytick_6">
     <g id="line2d_32">
      <g>
       <use style="stroke:#000000;stroke-width:0.8;" x="65.745313" xlink:href="#m0d98fae3c7" y="306.237812"/>
      </g>
     </g>
     <g id="text_17">
      <!-- −0.2 -->
      <defs>
       <path d="M 10.59375 35.5 
L 73.1875 35.5 
L 73.1875 27.203125 
L 10.59375 27.203125 
z
" id="DejaVuSans-8722"/>
       <path d="M 10.6875 12.40625 
L 21 12.40625 
L 21 0 
L 10.6875 0 
z
" id="DejaVuSans-46"/>
      </defs>
      <g transform="translate(24.749375 311.556719)scale(0.14 -0.14)">
       <use xlink:href="#DejaVuSans-8722"/>
       <use x="83.789062" xlink:href="#DejaVuSans-48"/>
       <use x="147.412109" xlink:href="#DejaVuSans-46"/>
       <use x="179.199219" xlink:href="#DejaVuSans-50"/>
      </g>
     </g>
    </g>
    <g id="ytick_7">
     <g id="line2d_33">
      <g>
       <use style="stroke:#000000;stroke-width:0.8;" x="65.745313" xlink:href="#m0d98fae3c7" y="268.58067"/>
      </g>
     </g>
     <g id="text_18">
      <!-- −0.1 -->
      <g transform="translate(24.749375 273.899576)scale(0.14 -0.14)">
       <use xlink:href="#DejaVuSans-8722"/>
       <use x="83.789062" xlink:href="#DejaVuSans-48"/>
       <use x="147.412109" xlink:href="#DejaVuSans-46"/>
       <use x="179.199219" xlink:href="#DejaVuSans-49"/>
      </g>
     </g>
    </g>
    <g id="ytick_8">
     <g id="line2d_34">
      <g>
       <use style="stroke:#000000;stroke-width:0.8;" x="65.745313" xlink:href="#m0d98fae3c7" y="230.923527"/>
      </g>
     </g>
     <g id="text_19">
      <!-- 0.0 -->
      <g transform="translate(36.480938 236.242433)scale(0.14 -0.14)">
       <use xlink:href="#DejaVuSans-48"/>
       <use x="63.623047" xlink:href="#DejaVuSans-46"/>
       <use x="95.410156" xlink:href="#DejaVuSans-48"/>
      </g>
     </g>
    </g>
    <g id="ytick_9">
     <g id="line2d_35">
      <g>
       <use style="stroke:#000000;stroke-width:0.8;" x="65.745313" xlink:href="#m0d98fae3c7" y="193.266384"/>
      </g>
     </g>
     <g id="text_20">
      <!-- 0.1 -->
      <g transform="translate(36.480938 198.58529)scale(0.14 -0.14)">
       <use xlink:href="#DejaVuSans-48"/>
       <use x="63.623047" xlink:href="#DejaVuSans-46"/>
       <use x="95.410156" xlink:href="#DejaVuSans-49"/>
      </g>
     </g>
    </g>
    <g id="text_21">
     <!-- Control current [nA] -->
     <defs>
      <path d="M 64.40625 67.28125 
L 64.40625 56.890625 
Q 59.421875 61.53125 53.78125 63.8125 
Q 48.140625 66.109375 41.796875 66.109375 
Q 29.296875 66.109375 22.65625 58.46875 
Q 16.015625 50.828125 16.015625 36.375 
Q 16.015625 21.96875 22.65625 14.328125 
Q 29.296875 6.6875 41.796875 6.6875 
Q 48.140625 6.6875 53.78125 8.984375 
Q 59.421875 11.28125 64.40625 15.921875 
L 64.40625 5.609375 
Q 59.234375 2.09375 53.4375 0.328125 
Q 47.65625 -1.421875 41.21875 -1.421875 
Q 24.65625 -1.421875 15.125 8.703125 
Q 5.609375 18.84375 5.609375 36.375 
Q 5.609375 53.953125 15.125 64.078125 
Q 24.65625 74.21875 41.21875 74.21875 
Q 47.75 74.21875 53.53125 72.484375 
Q 59.328125 70.75 64.40625 67.28125 
z
" id="DejaVuSans-67"/>
      <path d="M 48.78125 52.59375 
L 48.78125 44.1875 
Q 44.96875 46.296875 41.140625 47.34375 
Q 37.3125 48.390625 33.40625 48.390625 
Q 24.65625 48.390625 19.8125 42.84375 
Q 14.984375 37.3125 14.984375 27.296875 
Q 14.984375 17.28125 19.8125 11.734375 
Q 24.65625 6.203125 33.40625 6.203125 
Q 37.3125 6.203125 41.140625 7.25 
Q 44.96875 8.296875 48.78125 10.40625 
L 48.78125 2.09375 
Q 45.015625 0.34375 40.984375 -0.53125 
Q 36.96875 -1.421875 32.421875 -1.421875 
Q 20.0625 -1.421875 12.78125 6.34375 
Q 5.515625 14.109375 5.515625 27.296875 
Q 5.515625 40.671875 12.859375 48.328125 
Q 20.21875 56 33.015625 56 
Q 37.15625 56 41.109375 55.140625 
Q 45.0625 54.296875 48.78125 52.59375 
z
" id="DejaVuSans-99"/>
      <path d="M 8.5 21.578125 
L 8.5 54.6875 
L 17.484375 54.6875 
L 17.484375 21.921875 
Q 17.484375 14.15625 20.5 10.265625 
Q 23.53125 6.390625 29.59375 6.390625 
Q 36.859375 6.390625 41.078125 11.03125 
Q 45.3125 15.671875 45.3125 23.6875 
L 45.3125 54.6875 
L 54.296875 54.6875 
L 54.296875 0 
L 45.3125 0 
L 45.3125 8.40625 
Q 42.046875 3.421875 37.71875 1 
Q 33.40625 -1.421875 27.6875 -1.421875 
Q 18.265625 -1.421875 13.375 4.4375 
Q 8.5 10.296875 8.5 21.578125 
z
M 31.109375 56 
z
" id="DejaVuSans-117"/>
      <path d="M 34.1875 63.1875 
L 20.796875 26.90625 
L 47.609375 26.90625 
z
M 28.609375 72.90625 
L 39.796875 72.90625 
L 67.578125 0 
L 57.328125 0 
L 50.6875 18.703125 
L 17.828125 18.703125 
L 11.1875 0 
L 0.78125 0 
z
" id="DejaVuSans-65"/>
     </defs>
     <g transform="translate(17.837813 319.868036)rotate(-90)scale(0.14 -0.14)">
      <use xlink:href="#DejaVuSans-67"/>
      <use x="69.824219" xlink:href="#DejaVuSans-111"/>
      <use x="131.005859" xlink:href="#DejaVuSans-110"/>
      <use x="194.384766" xlink:href="#DejaVuSans-116"/>
      <use x="233.59375" xlink:href="#DejaVuSans-114"/>
      <use x="274.675781" xlink:href="#DejaVuSans-111"/>
      <use x="335.857422" xlink:href="#DejaVuSans-108"/>
      <use x="363.640625" xlink:href="#DejaVuSans-32"/>
      <use x="395.427734" xlink:href="#DejaVuSans-99"/>
      <use x="450.408203" xlink:href="#DejaVuSans-117"/>
      <use x="513.787109" xlink:href="#DejaVuSans-114"/>
      <use x="554.884766" xlink:href="#DejaVuSans-114"/>
      <use x="595.966797" xlink:href="#DejaVuSans-101"/>
      <use x="657.490234" xlink:href="#DejaVuSans-110"/>
      <use x="720.869141" xlink:href="#DejaVuSans-116"/>
      <use x="760.078125" xlink:href="#DejaVuSans-32"/>
      <use x="791.865234" xlink:href="#DejaVuSans-91"/>
      <use x="830.878906" xlink:href="#DejaVuSans-110"/>
      <use x="894.257812" xlink:href="#DejaVuSans-65"/>
      <use x="962.666016" xlink:href="#DejaVuSans-93"/>
     </g>
    </g>
   </g>
   <g id="line2d_36">
    <path clip-path="url(#pfe3fde2165)" d="M 65.745313 230.923527 
L 237.057813 230.923527 
L 237.057813 230.923527 
" style="fill:none;stroke:#d62728;stroke-linecap:square;stroke-width:2;"/>
   </g>
   <g id="line2d_37">
    <path clip-path="url(#pfe3fde2165)" d="M 65.745313 230.923527 
L 66.087938 230.939978 
L 87.030891 231.088903 
L 95.853484 231.36075 
L 101.635281 231.750353 
L 106.00375 232.260305 
L 108.573438 232.740964 
L 108.701922 232.972474 
L 111.871203 233.946109 
L 114.012609 234.82456 
L 115.897047 235.839847 
L 117.567344 236.983454 
L 119.0235 238.243405 
L 120.394 239.717018 
L 121.678844 241.438645 
L 122.835203 243.353587 
L 123.948734 245.642415 
L 124.890953 248.084736 
L 125.747516 250.921874 
L 126.604078 254.583714 
L 127.503469 259.508245 
L 128.531344 266.469739 
L 130.073156 278.583111 
L 131.486484 289.036315 
L 132.171734 292.603983 
L 132.600016 293.938518 
L 133.028297 294.611841 
L 133.242438 294.643711 
L 133.456578 294.423809 
L 133.756375 293.692957 
L 134.141828 292.038165 
L 134.527281 289.400732 
L 135.126875 283.420228 
L 135.940609 272.158754 
L 137.910703 243.329889 
L 138.510297 238.227587 
L 139.024234 235.606037 
L 139.495344 234.254143 
L 139.966453 233.580655 
L 140.437563 233.278513 
L 142.707453 232.346989 
L 143.392703 232.052303 
L 144.763203 231.768913 
L 147.632688 231.35179 
L 151.058938 231.097255 
L 157.611641 230.966574 
L 174.357438 230.924746 
L 237.057813 230.923527 
L 237.057813 230.923527 
" style="fill:none;stroke:#1f77b4;stroke-linecap:square;stroke-width:2;"/>
   </g>
   <g id="patch_27">
    <path d="M 65.745313 306.237812 
L 65.745313 193.266384 
" style="fill:none;stroke:#000000;stroke-linecap:square;stroke-linejoin:miter;stroke-width:0.8;"/>
   </g>
   <g id="patch_28">
    <path d="M 237.057813 306.237812 
L 237.057813 193.266384 
" style="fill:none;stroke:#000000;stroke-linecap:square;stroke-linejoin:miter;stroke-width:0.8;"/>
   </g>
   <g id="patch_29">
    <path d="M 65.745313 306.237812 
L 237.057813 306.237812 
" style="fill:none;stroke:#000000;stroke-linecap:square;stroke-linejoin:miter;stroke-width:0.8;"/>
   </g>
   <g id="patch_30">
    <path d="M 65.745313 193.266384 
L 237.057813 193.266384 
" style="fill:none;stroke:#000000;stroke-linecap:square;stroke-linejoin:miter;stroke-width:0.8;"/>
   </g>
  </g>
  <g id="axes_6">
   <g id="patch_31">
    <path d="M 265.420313 306.237812 
L 436.732813 306.237812 
L 436.732813 193.266384 
L 265.420313 193.266384 
z
" style="fill:#ffffff;"/>
   </g>
   <g id="line2d_38">
    <path clip-path="url(#pd18c4b9768)" d="M 265.420313 230.923527 
L 436.732813 230.923527 
" style="fill:none;stroke:#808080;stroke-linecap:square;"/>
   </g>
   <g id="matplotlib.axis_11">
    <g id="xtick_6">
     <g id="line2d_39">
      <g>
       <use style="stroke:#000000;stroke-width:0.8;" x="265.420313" xlink:href="#m1104b623ef" y="306.237812"/>
      </g>
     </g>
     <g id="text_22">
      <!-- 0 -->
      <g transform="translate(260.966563 323.875625)scale(0.14 -0.14)">
       <use xlink:href="#DejaVuSans-48"/>
      </g>
     </g>
    </g>
    <g id="xtick_7">
     <g id="line2d_40">
      <g>
       <use style="stroke:#000000;stroke-width:0.8;" x="308.248438" xlink:href="#m1104b623ef" y="306.237812"/>
      </g>
     </g>
     <g id="text_23">
      <!-- 100 -->
      <g transform="translate(294.887188 323.875625)scale(0.14 -0.14)">
       <use xlink:href="#DejaVuSans-49"/>
       <use x="63.623047" xlink:href="#DejaVuSans-48"/>
       <use x="127.246094" xlink:href="#DejaVuSans-48"/>
      </g>
     </g>
    </g>
    <g id="xtick_8">
     <g id="line2d_41">
      <g>
       <use style="stroke:#000000;stroke-width:0.8;" x="351.076563" xlink:href="#m1104b623ef" y="306.237812"/>
      </g>
     </g>
     <g id="text_24">
      <!-- 200 -->
      <g transform="translate(337.715313 323.875625)scale(0.14 -0.14)">
       <use xlink:href="#DejaVuSans-50"/>
       <use x="63.623047" xlink:href="#DejaVuSans-48"/>
       <use x="127.246094" xlink:href="#DejaVuSans-48"/>
      </g>
     </g>
    </g>
    <g id="xtick_9">
     <g id="line2d_42">
      <g>
       <use style="stroke:#000000;stroke-width:0.8;" x="393.904688" xlink:href="#m1104b623ef" y="306.237812"/>
      </g>
     </g>
     <g id="text_25">
      <!-- 300 -->
      <g transform="translate(380.543438 323.875625)scale(0.14 -0.14)">
       <use xlink:href="#DejaVuSans-51"/>
       <use x="63.623047" xlink:href="#DejaVuSans-48"/>
       <use x="127.246094" xlink:href="#DejaVuSans-48"/>
      </g>
     </g>
    </g>
    <g id="xtick_10">
     <g id="line2d_43">
      <g>
       <use style="stroke:#000000;stroke-width:0.8;" x="436.732813" xlink:href="#m1104b623ef" y="306.237812"/>
      </g>
     </g>
     <g id="text_26">
      <!-- 400 -->
      <g transform="translate(423.371563 323.875625)scale(0.14 -0.14)">
       <use xlink:href="#DejaVuSans-52"/>
       <use x="63.623047" xlink:href="#DejaVuSans-48"/>
       <use x="127.246094" xlink:href="#DejaVuSans-48"/>
      </g>
     </g>
    </g>
    <g id="text_27">
     <!-- t [ms] -->
     <g transform="translate(330.180469 341.425)scale(0.14 -0.14)">
      <use xlink:href="#DejaVuSans-116"/>
      <use x="39.208984" xlink:href="#DejaVuSans-32"/>
      <use x="70.996094" xlink:href="#DejaVuSans-91"/>
      <use x="110.009766" xlink:href="#DejaVuSans-109"/>
      <use x="207.421875" xlink:href="#DejaVuSans-115"/>
      <use x="259.521484" xlink:href="#DejaVuSans-93"/>
     </g>
    </g>
   </g>
   <g id="matplotlib.axis_12"/>
   <g id="line2d_44">
    <path clip-path="url(#pd18c4b9768)" d="M 265.420313 230.923527 
L 265.805766 230.909613 
L 287.905078 230.764629 
L 296.856156 230.497369 
L 302.680781 230.113628 
L 307.04925 229.61241 
L 309.576109 229.13566 
L 312.616906 228.421061 
L 315.229422 227.581794 
L 317.499313 226.624614 
L 319.555063 225.519506 
L 321.4395 224.253025 
L 323.152625 222.837751 
L 324.780094 221.200903 
L 326.279078 219.372203 
L 327.649578 217.344308 
L 328.934422 215.029578 
L 330.133609 212.398297 
L 331.418453 208.963676 
L 333.559859 203.017241 
L 334.116625 202.2387 
L 334.587734 202.215744 
L 334.844703 202.426961 
L 335.230156 203.062564 
L 335.529953 203.858556 
L 335.958234 205.263492 
L 338.742063 216.121496 
L 340.112563 219.990471 
L 341.611547 223.067865 
L 342.510938 224.408955 
L 342.896391 224.899732 
L 344.095578 226.301577 
L 345.294766 227.44095 
L 346.536781 228.311999 
L 347.950109 229.022211 
L 349.620406 229.604076 
L 351.676156 230.07331 
L 354.288672 230.437975 
L 357.843406 230.696359 
L 363.411063 230.854205 
L 375.274453 230.91798 
L 436.732813 230.923527 
L 436.732813 230.923527 
" style="fill:none;stroke:#d62728;stroke-linecap:square;stroke-width:2;"/>
   </g>
   <g id="line2d_45">
    <path clip-path="url(#pd18c4b9768)" d="M 265.420313 230.923527 
L 265.891422 230.935427 
L 289.061438 231.076459 
L 298.183828 231.341569 
L 304.094109 231.72562 
L 308.119953 232.191751 
L 308.248438 232.212176 
L 308.376922 232.421926 
L 311.803172 233.176166 
L 314.330031 233.949872 
L 316.471438 234.831632 
L 318.313047 235.826543 
L 319.983344 236.970104 
L 321.4395 238.233464 
L 322.81 239.717867 
L 324.052016 241.392251 
L 325.165547 243.256749 
L 326.107766 245.276747 
L 326.9215 247.5781 
L 327.692406 250.505656 
L 328.463313 254.380345 
L 329.448359 260.626547 
L 330.947344 270.080449 
L 331.504109 272.242929 
L 331.932391 273.061431 
L 332.189359 273.126698 
L 332.4035 272.916814 
L 332.703297 272.241898 
L 333.045922 271.027743 
L 333.559859 268.061067 
L 334.245109 262.640942 
L 336.943281 239.669606 
L 337.714188 236.205203 
L 338.270953 234.641477 
L 338.870547 233.609973 
L 339.555797 232.884241 
L 340.455188 232.275364 
L 341.268922 231.963235 
L 343.196188 231.611228 
L 345.980016 231.233405 
L 349.620406 231.055863 
L 356.258766 230.954671 
L 377.587172 230.923857 
L 436.732813 230.923527 
L 436.732813 230.923527 
" style="fill:none;stroke:#1f77b4;stroke-linecap:square;stroke-width:2;"/>
   </g>
   <g id="patch_32">
    <path d="M 265.420313 306.237812 
L 265.420313 193.266384 
" style="fill:none;stroke:#000000;stroke-linecap:square;stroke-linejoin:miter;stroke-width:0.8;"/>
   </g>
   <g id="patch_33">
    <path d="M 436.732813 306.237812 
L 436.732813 193.266384 
" style="fill:none;stroke:#000000;stroke-linecap:square;stroke-linejoin:miter;stroke-width:0.8;"/>
   </g>
   <g id="patch_34">
    <path d="M 265.420313 306.237812 
L 436.732813 306.237812 
" style="fill:none;stroke:#000000;stroke-linecap:square;stroke-linejoin:miter;stroke-width:0.8;"/>
   </g>
   <g id="patch_35">
    <path d="M 265.420313 193.266384 
L 436.732813 193.266384 
" style="fill:none;stroke:#000000;stroke-linecap:square;stroke-linejoin:miter;stroke-width:0.8;"/>
   </g>
  </g>
  <g id="axes_7">
   <g id="patch_36">
    <path d="M 465.095313 306.237812 
L 636.407813 306.237812 
L 636.407813 193.266384 
L 465.095313 193.266384 
z
" style="fill:#ffffff;"/>
   </g>
   <g id="line2d_46">
    <path clip-path="url(#pbf577f377a)" d="M 465.095313 230.923527 
L 636.407813 230.923527 
" style="fill:none;stroke:#808080;stroke-linecap:square;"/>
   </g>
   <g id="matplotlib.axis_13">
    <g id="xtick_11">
     <g id="line2d_47">
      <g>
       <use style="stroke:#000000;stroke-width:0.8;" x="465.095313" xlink:href="#m1104b623ef" y="306.237812"/>
      </g>
     </g>
     <g id="text_28">
      <!-- 0 -->
      <g transform="translate(460.641563 323.875625)scale(0.14 -0.14)">
       <use xlink:href="#DejaVuSans-48"/>
      </g>
     </g>
    </g>
    <g id="xtick_12">
     <g id="line2d_48">
      <g>
       <use style="stroke:#000000;stroke-width:0.8;" x="507.923438" xlink:href="#m1104b623ef" y="306.237812"/>
      </g>
     </g>
     <g id="text_29">
      <!-- 100 -->
      <g transform="translate(494.562188 323.875625)scale(0.14 -0.14)">
       <use xlink:href="#DejaVuSans-49"/>
       <use x="63.623047" xlink:href="#DejaVuSans-48"/>
       <use x="127.246094" xlink:href="#DejaVuSans-48"/>
      </g>
     </g>
    </g>
    <g id="xtick_13">
     <g id="line2d_49">
      <g>
       <use style="stroke:#000000;stroke-width:0.8;" x="550.751563" xlink:href="#m1104b623ef" y="306.237812"/>
      </g>
     </g>
     <g id="text_30">
      <!-- 200 -->
      <g transform="translate(537.390313 323.875625)scale(0.14 -0.14)">
       <use xlink:href="#DejaVuSans-50"/>
       <use x="63.623047" xlink:href="#DejaVuSans-48"/>
       <use x="127.246094" xlink:href="#DejaVuSans-48"/>
      </g>
     </g>
    </g>
    <g id="xtick_14">
     <g id="line2d_50">
      <g>
       <use style="stroke:#000000;stroke-width:0.8;" x="593.579688" xlink:href="#m1104b623ef" y="306.237812"/>
      </g>
     </g>
     <g id="text_31">
      <!-- 300 -->
      <g transform="translate(580.218438 323.875625)scale(0.14 -0.14)">
       <use xlink:href="#DejaVuSans-51"/>
       <use x="63.623047" xlink:href="#DejaVuSans-48"/>
       <use x="127.246094" xlink:href="#DejaVuSans-48"/>
      </g>
     </g>
    </g>
    <g id="xtick_15">
     <g id="line2d_51">
      <g>
       <use style="stroke:#000000;stroke-width:0.8;" x="636.407813" xlink:href="#m1104b623ef" y="306.237812"/>
      </g>
     </g>
     <g id="text_32">
      <!-- 400 -->
      <g transform="translate(623.046563 323.875625)scale(0.14 -0.14)">
       <use xlink:href="#DejaVuSans-52"/>
       <use x="63.623047" xlink:href="#DejaVuSans-48"/>
       <use x="127.246094" xlink:href="#DejaVuSans-48"/>
      </g>
     </g>
    </g>
    <g id="text_33">
     <!-- t [ms] -->
     <g transform="translate(529.855469 341.425)scale(0.14 -0.14)">
      <use xlink:href="#DejaVuSans-116"/>
      <use x="39.208984" xlink:href="#DejaVuSans-32"/>
      <use x="70.996094" xlink:href="#DejaVuSans-91"/>
      <use x="110.009766" xlink:href="#DejaVuSans-109"/>
      <use x="207.421875" xlink:href="#DejaVuSans-115"/>
      <use x="259.521484" xlink:href="#DejaVuSans-93"/>
     </g>
    </g>
   </g>
   <g id="matplotlib.axis_14"/>
   <g id="line2d_52">
    <path clip-path="url(#pbf577f377a)" d="M 465.095313 230.923527 
L 516.017953 231.034236 
L 518.116531 231.269644 
L 519.444203 231.632946 
L 520.42925 232.129682 
L 521.242984 232.782879 
L 521.971063 233.653079 
L 522.656313 234.821223 
L 523.341563 236.447062 
L 524.026813 238.674046 
L 524.754891 241.862302 
L 525.525797 246.296382 
L 526.468016 253.144827 
L 528.438109 267.941499 
L 528.994875 270.374629 
L 529.380328 271.32653 
L 529.722953 271.654581 
L 529.979922 271.595185 
L 530.236891 271.308478 
L 530.622344 270.498809 
L 531.179109 268.712046 
L 532.206984 264.363933 
L 534.733844 253.011106 
L 535.975859 248.354556 
L 537.089391 244.900686 
L 538.459891 241.482246 
L 539.444938 239.508751 
L 540.601297 237.66981 
L 541.757656 236.233426 
L 543.470781 234.512783 
L 544.798453 233.587264 
L 546.340266 232.800493 
L 548.010563 232.197799 
L 549.980656 231.726269 
L 552.164891 231.415612 
L 555.719625 231.154426 
L 561.244453 230.994759 
L 572.893703 230.929493 
L 636.407813 230.923527 
L 636.407813 230.923527 
" style="fill:none;stroke:#d62728;stroke-linecap:square;stroke-width:2;"/>
   </g>
   <g id="line2d_53">
    <path clip-path="url(#pbf577f377a)" d="M 465.095313 230.923527 
L 636.407813 230.923527 
L 636.407813 230.923527 
" style="fill:none;stroke:#1f77b4;stroke-linecap:square;stroke-width:2;"/>
   </g>
   <g id="patch_37">
    <path d="M 465.095313 306.237812 
L 465.095313 193.266384 
" style="fill:none;stroke:#000000;stroke-linecap:square;stroke-linejoin:miter;stroke-width:0.8;"/>
   </g>
   <g id="patch_38">
    <path d="M 636.407813 306.237812 
L 636.407813 193.266384 
" style="fill:none;stroke:#000000;stroke-linecap:square;stroke-linejoin:miter;stroke-width:0.8;"/>
   </g>
   <g id="patch_39">
    <path d="M 465.095313 306.237812 
L 636.407813 306.237812 
" style="fill:none;stroke:#000000;stroke-linecap:square;stroke-linejoin:miter;stroke-width:0.8;"/>
   </g>
   <g id="patch_40">
    <path d="M 465.095313 193.266384 
L 636.407813 193.266384 
" style="fill:none;stroke:#000000;stroke-linecap:square;stroke-linejoin:miter;stroke-width:0.8;"/>
   </g>
  </g>
  <g id="axes_8">
   <g id="patch_41">
    <path d="M 664.770313 306.237812 
L 836.082813 306.237812 
L 836.082813 193.266384 
L 664.770313 193.266384 
z
" style="fill:#ffffff;"/>
   </g>
   <g id="line2d_54">
    <path clip-path="url(#p161edd3623)" d="M 664.770313 230.923527 
L 836.082813 230.923527 
" style="fill:none;stroke:#808080;stroke-linecap:square;"/>
   </g>
   <g id="matplotlib.axis_15">
    <g id="xtick_16">
     <g id="line2d_55">
      <g>
       <use style="stroke:#000000;stroke-width:0.8;" x="664.770313" xlink:href="#m1104b623ef" y="306.237812"/>
      </g>
     </g>
     <g id="text_34">
      <!-- 0 -->
      <g transform="translate(660.316563 323.875625)scale(0.14 -0.14)">
       <use xlink:href="#DejaVuSans-48"/>
      </g>
     </g>
    </g>
    <g id="xtick_17">
     <g id="line2d_56">
      <g>
       <use style="stroke:#000000;stroke-width:0.8;" x="707.598438" xlink:href="#m1104b623ef" y="306.237812"/>
      </g>
     </g>
     <g id="text_35">
      <!-- 100 -->
      <g transform="translate(694.237188 323.875625)scale(0.14 -0.14)">
       <use xlink:href="#DejaVuSans-49"/>
       <use x="63.623047" xlink:href="#DejaVuSans-48"/>
       <use x="127.246094" xlink:href="#DejaVuSans-48"/>
      </g>
     </g>
    </g>
    <g id="xtick_18">
     <g id="line2d_57">
      <g>
       <use style="stroke:#000000;stroke-width:0.8;" x="750.426563" xlink:href="#m1104b623ef" y="306.237812"/>
      </g>
     </g>
     <g id="text_36">
      <!-- 200 -->
      <g transform="translate(737.065313 323.875625)scale(0.14 -0.14)">
       <use xlink:href="#DejaVuSans-50"/>
       <use x="63.623047" xlink:href="#DejaVuSans-48"/>
       <use x="127.246094" xlink:href="#DejaVuSans-48"/>
      </g>
     </g>
    </g>
    <g id="xtick_19">
     <g id="line2d_58">
      <g>
       <use style="stroke:#000000;stroke-width:0.8;" x="793.254688" xlink:href="#m1104b623ef" y="306.237812"/>
      </g>
     </g>
     <g id="text_37">
      <!-- 300 -->
      <g transform="translate(779.893438 323.875625)scale(0.14 -0.14)">
       <use xlink:href="#DejaVuSans-51"/>
       <use x="63.623047" xlink:href="#DejaVuSans-48"/>
       <use x="127.246094" xlink:href="#DejaVuSans-48"/>
      </g>
     </g>
    </g>
    <g id="xtick_20">
     <g id="line2d_59">
      <g>
       <use style="stroke:#000000;stroke-width:0.8;" x="836.082813" xlink:href="#m1104b623ef" y="306.237812"/>
      </g>
     </g>
     <g id="text_38">
      <!-- 400 -->
      <g transform="translate(822.721563 323.875625)scale(0.14 -0.14)">
       <use xlink:href="#DejaVuSans-52"/>
       <use x="63.623047" xlink:href="#DejaVuSans-48"/>
       <use x="127.246094" xlink:href="#DejaVuSans-48"/>
      </g>
     </g>
    </g>
    <g id="text_39">
     <!-- t [ms] -->
     <g transform="translate(729.530469 341.425)scale(0.14 -0.14)">
      <use xlink:href="#DejaVuSans-116"/>
      <use x="39.208984" xlink:href="#DejaVuSans-32"/>
      <use x="70.996094" xlink:href="#DejaVuSans-91"/>
      <use x="110.009766" xlink:href="#DejaVuSans-109"/>
      <use x="207.421875" xlink:href="#DejaVuSans-115"/>
      <use x="259.521484" xlink:href="#DejaVuSans-93"/>
     </g>
    </g>
   </g>
   <g id="matplotlib.axis_16"/>
   <g id="line2d_60">
    <path clip-path="url(#p161edd3623)" d="M 664.770313 230.923527 
L 711.324484 231.032932 
L 713.423063 231.265918 
L 714.750734 231.625808 
L 715.735781 232.117069 
L 716.549516 232.76339 
L 717.277594 233.622674 
L 717.962844 234.771608 
L 718.648094 236.366909 
L 719.333344 238.539349 
L 720.061422 241.621439 
L 720.875156 246.134334 
L 721.903031 253.295855 
L 723.701813 265.968935 
L 724.301406 268.703173 
L 724.772516 269.956614 
L 725.072313 270.363645 
L 725.329281 270.470234 
L 725.629078 270.342037 
L 725.971703 269.882212 
L 726.442813 268.781088 
L 727.213719 266.192487 
L 728.498563 260.714964 
L 730.554313 251.960152 
L 731.7535 247.708632 
L 732.995516 244.009842 
L 734.280359 241.05724 
L 735.565203 238.638964 
L 736.807219 236.918137 
L 738.006406 235.624989 
L 739.334078 234.518922 
L 740.618922 233.717861 
L 741.603969 233.368097 
L 742.075078 233.174241 
L 742.931641 232.733461 
L 744.387797 232.268344 
L 746.743344 231.83521 
L 752.353828 231.114084 
L 758.563906 230.974382 
L 773.382438 230.925697 
L 836.082813 230.923527 
L 836.082813 230.923527 
" style="fill:none;stroke:#d62728;stroke-linecap:square;stroke-width:2;"/>
   </g>
   <g id="line2d_61">
    <path clip-path="url(#p161edd3623)" d="M 664.770313 230.923527 
L 715.221844 230.814112 
L 717.491734 230.571109 
L 719.076375 230.17933 
L 720.575359 229.572083 
L 723.145047 228.483758 
L 724.172922 228.311393 
L 725.414938 228.325829 
L 727.256547 228.58774 
L 731.368047 229.473328 
L 734.794297 230.092313 
L 738.306203 230.493101 
L 742.589016 230.742857 
L 749.013234 230.870762 
L 764.6455 230.921593 
L 836.082813 230.923527 
L 836.082813 230.923527 
" style="fill:none;stroke:#1f77b4;stroke-linecap:square;stroke-width:2;"/>
   </g>
   <g id="patch_42">
    <path d="M 664.770313 306.237812 
L 664.770313 193.266384 
" style="fill:none;stroke:#000000;stroke-linecap:square;stroke-linejoin:miter;stroke-width:0.8;"/>
   </g>
   <g id="patch_43">
    <path d="M 836.082813 306.237812 
L 836.082813 193.266384 
" style="fill:none;stroke:#000000;stroke-linecap:square;stroke-linejoin:miter;stroke-width:0.8;"/>
   </g>
   <g id="patch_44">
    <path d="M 664.770313 306.237812 
L 836.082813 306.237812 
" style="fill:none;stroke:#000000;stroke-linecap:square;stroke-linejoin:miter;stroke-width:0.8;"/>
   </g>
   <g id="patch_45">
    <path d="M 664.770313 193.266384 
L 836.082813 193.266384 
" style="fill:none;stroke:#000000;stroke-linecap:square;stroke-linejoin:miter;stroke-width:0.8;"/>
   </g>
  </g>
  <g id="legend_1">
   <g id="patch_46">
    <path d="M 72.405312 44.885937 
L 849.88 44.885937 
Q 852.68 44.885937 852.68 42.085937 
L 852.68 22.936562 
Q 852.68 20.136562 849.88 20.136562 
L 72.405312 20.136562 
Q 69.605312 20.136562 69.605312 22.936562 
L 69.605312 42.085937 
Q 69.605312 44.885937 72.405312 44.885937 
z
" style="fill:#ffffff;opacity:0.8;stroke:#cccccc;stroke-linejoin:miter;"/>
   </g>
   <g id="line2d_62">
    <path d="M 75.205312 31.474375 
L 103.205312 31.474375 
" style="fill:none;stroke:#d62728;stroke-linecap:square;stroke-width:2;"/>
   </g>
   <g id="line2d_63"/>
   <g id="text_40">
    <!-- Exc. activity/ control -->
    <defs>
     <path d="M 9.8125 72.90625 
L 55.90625 72.90625 
L 55.90625 64.59375 
L 19.671875 64.59375 
L 19.671875 43.015625 
L 54.390625 43.015625 
L 54.390625 34.71875 
L 19.671875 34.71875 
L 19.671875 8.296875 
L 56.78125 8.296875 
L 56.78125 0 
L 9.8125 0 
z
" id="DejaVuSans-69"/>
     <path d="M 54.890625 54.6875 
L 35.109375 28.078125 
L 55.90625 0 
L 45.3125 0 
L 29.390625 21.484375 
L 13.484375 0 
L 2.875 0 
L 24.125 28.609375 
L 4.6875 54.6875 
L 15.28125 54.6875 
L 29.78125 35.203125 
L 44.28125 54.6875 
z
" id="DejaVuSans-120"/>
     <path d="M 2.984375 54.6875 
L 12.5 54.6875 
L 29.59375 8.796875 
L 46.6875 54.6875 
L 56.203125 54.6875 
L 35.6875 0 
L 23.484375 0 
z
" id="DejaVuSans-118"/>
     <path d="M 25.390625 72.90625 
L 33.6875 72.90625 
L 8.296875 -9.28125 
L 0 -9.28125 
z
" id="DejaVuSans-47"/>
    </defs>
    <g transform="translate(104.605312 36.374375)scale(0.14 -0.14)">
     <use xlink:href="#DejaVuSans-69"/>
     <use x="63.183594" xlink:href="#DejaVuSans-120"/>
     <use x="122.347656" xlink:href="#DejaVuSans-99"/>
     <use x="177.328125" xlink:href="#DejaVuSans-46"/>
     <use x="209.115234" xlink:href="#DejaVuSans-32"/>
     <use x="240.902344" xlink:href="#DejaVuSans-97"/>
     <use x="302.181641" xlink:href="#DejaVuSans-99"/>
     <use x="357.162109" xlink:href="#DejaVuSans-116"/>
     <use x="396.371094" xlink:href="#DejaVuSans-105"/>
     <use x="424.154297" xlink:href="#DejaVuSans-118"/>
     <use x="483.333984" xlink:href="#DejaVuSans-105"/>
     <use x="511.117188" xlink:href="#DejaVuSans-116"/>
     <use x="550.326172" xlink:href="#DejaVuSans-121"/>
     <use x="609.505859" xlink:href="#DejaVuSans-47"/>
     <use x="643.197266" xlink:href="#DejaVuSans-32"/>
     <use x="674.984375" xlink:href="#DejaVuSans-99"/>
     <use x="729.964844" xlink:href="#DejaVuSans-111"/>
     <use x="791.146484" xlink:href="#DejaVuSans-110"/>
     <use x="854.525391" xlink:href="#DejaVuSans-116"/>
     <use x="893.734375" xlink:href="#DejaVuSans-114"/>
     <use x="934.816406" xlink:href="#DejaVuSans-111"/>
     <use x="995.998047" xlink:href="#DejaVuSans-108"/>
    </g>
   </g>
   <g id="line2d_64">
    <path d="M 261.934687 31.474375 
L 289.934687 31.474375 
" style="fill:none;stroke:#d62728;stroke-dasharray:11.1,4.8;stroke-dashoffset:0;stroke-width:3;"/>
   </g>
   <g id="line2d_65"/>
   <g id="text_41">
    <!-- Exc. target -->
    <g transform="translate(291.334687 36.374375)scale(0.14 -0.14)">
     <use xlink:href="#DejaVuSans-69"/>
     <use x="63.183594" xlink:href="#DejaVuSans-120"/>
     <use x="122.347656" xlink:href="#DejaVuSans-99"/>
     <use x="177.328125" xlink:href="#DejaVuSans-46"/>
     <use x="209.115234" xlink:href="#DejaVuSans-32"/>
     <use x="240.902344" xlink:href="#DejaVuSans-116"/>
     <use x="280.111328" xlink:href="#DejaVuSans-97"/>
     <use x="341.390625" xlink:href="#DejaVuSans-114"/>
     <use x="382.488281" xlink:href="#DejaVuSans-103"/>
     <use x="445.964844" xlink:href="#DejaVuSans-101"/>
     <use x="507.488281" xlink:href="#DejaVuSans-116"/>
    </g>
   </g>
   <g id="line2d_66">
    <path d="M 381.873125 31.474375 
L 409.873125 31.474375 
" style="fill:none;stroke:#1f77b4;stroke-linecap:square;stroke-width:2;"/>
   </g>
   <g id="line2d_67"/>
   <g id="text_42">
    <!-- Inh. activity/ control -->
    <defs>
     <path d="M 9.8125 72.90625 
L 19.671875 72.90625 
L 19.671875 0 
L 9.8125 0 
z
" id="DejaVuSans-73"/>
    </defs>
    <g transform="translate(411.273125 36.374375)scale(0.14 -0.14)">
     <use xlink:href="#DejaVuSans-73"/>
     <use x="29.492188" xlink:href="#DejaVuSans-110"/>
     <use x="92.871094" xlink:href="#DejaVuSans-104"/>
     <use x="156.25" xlink:href="#DejaVuSans-46"/>
     <use x="188.037109" xlink:href="#DejaVuSans-32"/>
     <use x="219.824219" xlink:href="#DejaVuSans-97"/>
     <use x="281.103516" xlink:href="#DejaVuSans-99"/>
     <use x="336.083984" xlink:href="#DejaVuSans-116"/>
     <use x="375.292969" xlink:href="#DejaVuSans-105"/>
     <use x="403.076172" xlink:href="#DejaVuSans-118"/>
     <use x="462.255859" xlink:href="#DejaVuSans-105"/>
     <use x="490.039062" xlink:href="#DejaVuSans-116"/>
     <use x="529.248047" xlink:href="#DejaVuSans-121"/>
     <use x="588.427734" xlink:href="#DejaVuSans-47"/>
     <use x="622.119141" xlink:href="#DejaVuSans-32"/>
     <use x="653.90625" xlink:href="#DejaVuSans-99"/>
     <use x="708.886719" xlink:href="#DejaVuSans-111"/>
     <use x="770.068359" xlink:href="#DejaVuSans-110"/>
     <use x="833.447266" xlink:href="#DejaVuSans-116"/>
     <use x="872.65625" xlink:href="#DejaVuSans-114"/>
     <use x="913.738281" xlink:href="#DejaVuSans-111"/>
     <use x="974.919922" xlink:href="#DejaVuSans-108"/>
    </g>
   </g>
   <g id="line2d_68">
    <path d="M 565.649375 31.474375 
L 593.649375 31.474375 
" style="fill:none;stroke:#1f77b4;stroke-dasharray:11.1,4.8;stroke-dashoffset:0;stroke-width:3;"/>
   </g>
   <g id="line2d_69"/>
   <g id="text_43">
    <!-- Inh. target -->
    <g transform="translate(595.049375 36.374375)scale(0.14 -0.14)">
     <use xlink:href="#DejaVuSans-73"/>
     <use x="29.492188" xlink:href="#DejaVuSans-110"/>
     <use x="92.871094" xlink:href="#DejaVuSans-104"/>
     <use x="156.25" xlink:href="#DejaVuSans-46"/>
     <use x="188.037109" xlink:href="#DejaVuSans-32"/>
     <use x="219.824219" xlink:href="#DejaVuSans-116"/>
     <use x="259.033203" xlink:href="#DejaVuSans-97"/>
     <use x="320.3125" xlink:href="#DejaVuSans-114"/>
     <use x="361.410156" xlink:href="#DejaVuSans-103"/>
     <use x="424.886719" xlink:href="#DejaVuSans-101"/>
     <use x="486.410156" xlink:href="#DejaVuSans-116"/>
    </g>
   </g>
   <g id="line2d_70"/>
   <g id="line2d_71">
    <defs>
     <path d="M -5 5 
L 5 5 
L 5 -5 
L -5 -5 
z
" id="m069b677347" style="stroke:#808080;stroke-linejoin:miter;stroke-opacity:0.2;"/>
    </defs>
    <g>
     <use style="fill:#808080;fill-opacity:0.2;stroke:#808080;stroke-linejoin:miter;stroke-opacity:0.2;" x="696.634687" xlink:href="#m069b677347" y="31.474375"/>
    </g>
   </g>
   <g id="text_44">
    <!-- Precision penalized -->
    <defs>
     <path d="M 19.671875 64.796875 
L 19.671875 37.40625 
L 32.078125 37.40625 
Q 38.96875 37.40625 42.71875 40.96875 
Q 46.484375 44.53125 46.484375 51.125 
Q 46.484375 57.671875 42.71875 61.234375 
Q 38.96875 64.796875 32.078125 64.796875 
z
M 9.8125 72.90625 
L 32.078125 72.90625 
Q 44.34375 72.90625 50.609375 67.359375 
Q 56.890625 61.8125 56.890625 51.125 
Q 56.890625 40.328125 50.609375 34.8125 
Q 44.34375 29.296875 32.078125 29.296875 
L 19.671875 29.296875 
L 19.671875 0 
L 9.8125 0 
z
" id="DejaVuSans-80"/>
     <path d="M 45.40625 46.390625 
L 45.40625 75.984375 
L 54.390625 75.984375 
L 54.390625 0 
L 45.40625 0 
L 45.40625 8.203125 
Q 42.578125 3.328125 38.25 0.953125 
Q 33.9375 -1.421875 27.875 -1.421875 
Q 17.96875 -1.421875 11.734375 6.484375 
Q 5.515625 14.40625 5.515625 27.296875 
Q 5.515625 40.1875 11.734375 48.09375 
Q 17.96875 56 27.875 56 
Q 33.9375 56 38.25 53.625 
Q 42.578125 51.265625 45.40625 46.390625 
z
M 14.796875 27.296875 
Q 14.796875 17.390625 18.875 11.75 
Q 22.953125 6.109375 30.078125 6.109375 
Q 37.203125 6.109375 41.296875 11.75 
Q 45.40625 17.390625 45.40625 27.296875 
Q 45.40625 37.203125 41.296875 42.84375 
Q 37.203125 48.484375 30.078125 48.484375 
Q 22.953125 48.484375 18.875 42.84375 
Q 14.796875 37.203125 14.796875 27.296875 
z
" id="DejaVuSans-100"/>
    </defs>
    <g transform="translate(712.034687 36.374375)scale(0.14 -0.14)">
     <use xlink:href="#DejaVuSans-80"/>
     <use x="60.287109" xlink:href="#DejaVuSans-114"/>
     <use x="101.369141" xlink:href="#DejaVuSans-101"/>
     <use x="162.892578" xlink:href="#DejaVuSans-99"/>
     <use x="217.873047" xlink:href="#DejaVuSans-105"/>
     <use x="245.65625" xlink:href="#DejaVuSans-115"/>
     <use x="297.755859" xlink:href="#DejaVuSans-105"/>
     <use x="325.539062" xlink:href="#DejaVuSans-111"/>
     <use x="386.720703" xlink:href="#DejaVuSans-110"/>
     <use x="450.099609" xlink:href="#DejaVuSans-32"/>
     <use x="481.886719" xlink:href="#DejaVuSans-112"/>
     <use x="545.363281" xlink:href="#DejaVuSans-101"/>
     <use x="606.886719" xlink:href="#DejaVuSans-110"/>
     <use x="670.265625" xlink:href="#DejaVuSans-97"/>
     <use x="731.544922" xlink:href="#DejaVuSans-108"/>
     <use x="759.328125" xlink:href="#DejaVuSans-105"/>
     <use x="787.111328" xlink:href="#DejaVuSans-122"/>
     <use x="839.601562" xlink:href="#DejaVuSans-101"/>
     <use x="901.125" xlink:href="#DejaVuSans-100"/>
    </g>
   </g>
  </g>
 </g>
 <defs>
  <clipPath id="pd96b0aafe7">
   <rect height="150.628571" width="171.3125" x="65.745313" y="22.837812"/>
  </clipPath>
  <clipPath id="p1693abb379">
   <rect height="150.628571" width="171.3125" x="265.420313" y="22.837812"/>
  </clipPath>
  <clipPath id="pb174194041">
   <rect height="150.628571" width="171.3125" x="465.095313" y="22.837812"/>
  </clipPath>
  <clipPath id="pca7a771021">
   <rect height="150.628571" width="171.3125" x="664.770313" y="22.837812"/>
  </clipPath>
  <clipPath id="pfe3fde2165">
   <rect height="112.971429" width="171.3125" x="65.745313" y="193.266384"/>
  </clipPath>
  <clipPath id="pd18c4b9768">
   <rect height="112.971429" width="171.3125" x="265.420313" y="193.266384"/>
  </clipPath>
  <clipPath id="pbf577f377a">
   <rect height="112.971429" width="171.3125" x="465.095313" y="193.266384"/>
  </clipPath>
  <clipPath id="p161edd3623">
   <rect height="112.971429" width="171.3125" x="664.770313" y="193.266384"/>
  </clipPath>
 </defs>
 <defs>
  <pattern height="72" id="h1fe752d45d" patternUnits="userSpaceOnUse" width="72" x="0" y="0">
   <rect fill="#808080" height="73" width="73" x="0" y="0"/>
   <path d="M -36 36 
L 36 -36 
M -32 40 
L 40 -32 
M -28 44 
L 44 -28 
M -24 48 
L 48 -24 
M -20 52 
L 52 -20 
M -16 56 
L 56 -16 
M -12 60 
L 60 -12 
M -8 64 
L 64 -8 
M -4 68 
L 68 -4 
M 0 72 
L 72 0 
M 4 76 
L 76 4 
M 8 80 
L 80 8 
M 12 84 
L 84 12 
M 16 88 
L 88 16 
M 20 92 
L 92 20 
M 24 96 
L 96 24 
M 28 100 
L 100 28 
M 32 104 
L 104 32 
M 36 108 
L 108 36 
" style="fill:#808080;stroke:#808080;stroke-linecap:butt;stroke-linejoin:miter;stroke-width:1.0;"/>
  </pattern>
 </defs>
</svg>
